<?xml version="1.0" standalone="yes"?>
<svg xmlns="http://www.w3.org/2000/svg" width="268" height="71">
<path style="fill:#5b9bd5; stroke:none;" d="M0 0C6.91871 2.90321 17.5202 1 25 1L79 1L268 1C261.081 -1.90321 250.48 0 243 0L189 0L0 0z"/>
<path style="fill:#ffffff; stroke:none;" d="M0 1L0 71L268 71L268 1L129 1C135.368 4.69354 141.063 9.55056 143 17C150.849 17 158.334 16.4057 165.985 14.6073C170.787 13.4785 173.772 10.8963 179 11.0162C186.939 11.1982 192.366 17.958 200 17.9414C211.508 17.9162 224.705 12.3611 236 16.2492C248.993 20.7216 248 32.6864 248 44C248 49.0367 248.961 54.5546 244.852 58.2508C233.787 68.2032 216.756 65 203 65C180.74 65 158.235 65.97 136 64.9606C131.252 64.7451 126.771 63.0805 122 63.0185C115.586 62.9352 109.414 65.0627 103 64.9815C93.8827 64.866 83.6722 60.9167 81.3943 51C80.3079 46.2707 81.8071 41.7042 81.8673 37C81.92 32.8828 79.9162 29.1522 80.1057 25C80.656 12.945 89.6236 5.82183 100 2C91.6426 -1.50694 78.0596 1 69 1L0 1z"/>
<path style="fill:#fefdf5; stroke:none;" d="M92 63C88.0811 57.7997 84.4331 51.6632 84.1049 45C83.9395 41.6417 85.1274 38.3367 84.8171 35C84.4213 30.7432 81.7452 27.4728 82.1096 23C83.1882 9.76003 97.3286 2.90752 109 2.08951C116.924 1.53411 127.386 1.31105 133.985 6.41898C137.797 9.37001 139.737 17.3947 144.144 18.6821C149.29 20.1853 154.946 18.0315 160 17.3002C162.538 16.9329 165.156 17.1532 167.576 16.1852C171.166 14.7491 173.963 12.3714 178 12.1235C186.151 11.6229 189.034 19.7132 196.039 20.8519C200.695 21.6086 205.381 20.4058 210 20.0895C214.281 19.7964 218.649 20.3847 222.91 19.8711C225.699 19.5351 228.166 18.1467 231.015 18.0941C238.639 17.9534 243.857 23.1015 245.981 29.9985C246.708 32.3601 246.929 34.5459 247 37C252.18 24.6545 240.534 15.0338 229 15.0293C219.26 15.0256 208.577 18.7678 199 17.8164C194.882 17.4073 191.693 14.2772 188 12.6844C184.158 11.0271 180.147 10.8589 176.015 11.0185C171.796 11.1815 168.966 13.6861 164.996 14.6073C157.682 16.3046 150.503 17 143 17C140.794 1.89496 127.198 1 115 1C105.468 1 96.4206 0.987 88.3789 7.07099C82.4887 11.5272 79.4777 20.8845 80.1049 28C80.3747 31.0603 81.7328 33.9117 81.7261 37C81.7039 47.1684 79.1218 59.3637 92 63z"/>
<path style="fill:#f9f8df; stroke:none;" d="M82 30C83.4588 26.5249 82.6833 22.6828 84.6127 19.2855C86.9257 15.2125 89.9649 10.4918 94.0147 8.00926C101.593 3.36382 115.319 3 124 3C120.311 1.45184 115.975 1.9816 112 2.00077C99.9596 2.05885 86.5993 6.21095 82.652 19C81.5811 22.4698 82 26.4134 82 30z"/>
<path style="fill:#f5f5c9; stroke:none;" d="M93 59C91.0808 55.754 88.6742 52.661 87.7052 48.9606C86.5071 44.385 87.328 39.648 86.8958 35C86.6126 31.9538 85.2141 29.0766 85.2785 26C85.4249 19.0186 92.158 12.007 98.0008 8.89815C107.963 3.59756 120.346 5.54253 131 6C123.916 1.32488 115.758 3.08988 108 4.62886C96.9301 6.82477 88.3221 8.11769 83.7238 20.1698C81.6233 25.6751 84.609 30.5998 84.7014 36C84.8639 45.502 82.2558 54.4094 93 59z"/>
<path style="fill:#f3f4e1; stroke:none;" d="M126 3C129.264 5.60453 133.056 7.62646 137 9C134.002 5.20593 130.743 3.71411 126 3z"/>
<path style="fill:#e7e8a9; stroke:none;" d="M86 32C88.2669 26.6476 88.2279 21.1155 91.875 16.0748C100.224 4.53533 118.624 6.43592 131 8C127.301 3.60302 118.209 4.73203 113 5.42439C98.4966 7.35201 81.7252 13.9947 86 32z"/>
<path style="fill:#f8fdd4; stroke:none;" d="M33 7C36.6975 8.55152 41.0168 8 45 8C41.3025 6.44848 36.9832 7 33 7z"/>
<path style="fill:#d2d78e; stroke:none;" d="M101 55C98.7233 52.4555 94.8937 50.2944 93.7824 46.946C92.3708 42.6926 96.0699 38.4849 98 35C96.0728 33.0172 95.6069 32.4054 97 30C91.4852 25.2021 92.6773 20.0673 99.0401 16.0054C104.998 12.2022 117.351 10.3121 124 13.0093C133.881 17.0176 132.662 26.0048 124 30.5579C120.893 32.1911 117.445 32.7182 114 33C117.16 34.8267 119.687 36.077 122 39L125 39C128.655 33.4786 133.342 27.2355 139 34C140.697 32.672 142.789 30.1061 144.997 29.7261C150.611 28.7601 148.698 36.2536 148 39C152.882 35.559 156.586 31.4881 159 26C151.177 26.9887 145.176 27.642 138 24C137.674 20.1064 134.209 10.7245 130.698 8.57253C127.612 6.68176 123.461 7.00556 120 7C111.268 6.98596 99.8731 6.66174 93.3441 13.4437C86.9067 20.1305 90.7243 28.196 90.8171 36C90.8763 40.9772 87.3167 51.4777 93.3943 54.3966C95.5765 55.4447 98.6516 54.9982 101 55z"/>
<path style="fill:#e4e9d5; stroke:none;" d="M131 7C132.442 9.03149 134.606 10.2163 136.116 12.2199C138.337 15.169 138.362 17.5434 142 19C140.112 12.4918 137.987 8.52136 131 7z"/>
<path style="fill:#f0faa0; stroke:none;" d="M38 16C38.4141 10.5715 40.7437 9.17117 46 9C41.3592 7.05262 32.6964 7.10136 28.0586 9.22839C20.5968 12.6507 27.2609 15.966 31.9954 15.9992L38 16z"/>
<path style="fill:#e5d882; stroke:none;" d="M39 9C42.4324 10.4403 46.2998 10 50 10C46.5676 8.55969 42.7002 9 39 9z"/>
<path style="fill:#f0dcc4; stroke:none;" d="M50 9C52.3316 9.98453 54.4567 9.98125 57 10C54.6684 9.01547 52.5433 9.01875 50 9z"/>
<path style="fill:#d2d8b1; stroke:none;" d="M133 9C133.492 13.9318 135.153 17.9664 138 22C139.786 17.0183 137.349 11.6817 133 9z"/>
<path style="fill:#ffe2d8; stroke:none;" d="M13 10C15.0521 10.8742 16.7472 10.9528 19 11C16.9479 10.1258 15.2528 10.0472 13 10z"/>
<path style="fill:#efe680; stroke:none;" d="M38 10L38 16C38.9511 13.7147 38.9511 12.2853 38 10z"/>
<path style="fill:#d29650; stroke:none;" d="M39 10L39 12L45 12C43.012 14.061 41.8429 14.5787 39 15C44.2224 17.1914 51.3677 16 57 16L57 10L39 10z"/>
<path style="fill:#edd6b7; stroke:none;" d="M57 10C57.077 12.6451 56.9966 14.266 59 16C58.4394 13.8976 57.9509 11.9407 57 10z"/>
<path style="fill:#ff7648; stroke:none;" d="M12 11C14.6127 12.0977 17.1645 11.9928 20 12C17.3873 10.9023 14.8355 11.0072 12 11z"/>
<path style="fill:#c5cbd7; stroke:none;" d="M20 11C21.2484 11.6848 21.5484 11.7488 23 12C21.7517 11.3152 21.4516 11.2512 20 11z"/>
<path style="fill:#ffa78b; stroke:none;" d="M11.3333 12.6667C11.2778 12.7222 11.2222 13.7778 11.6667 13.3333C11.7222 13.2778 11.7778 12.2222 11.3333 12.6667z"/>
<path style="fill:#ff612c; stroke:none;" d="M12 12L12 14L20 14L20 12L12 12z"/>
<path style="fill:#8e5d59; stroke:none;" d="M20.3333 12.6667C20.2778 12.7222 20.2222 13.7778 20.6667 13.3333C20.7222 13.2778 20.7778 12.2222 20.3333 12.6667z"/>
<path style="fill:#414669; stroke:none;" d="M21 12C24.2346 22.3442 27.977 35.1904 26 46C33.7479 41.4289 40.9537 40.7139 50 40C49.4992 37.3142 49.1174 34.7301 49 32C53.1134 31.9995 56.9826 31.9565 61 31C59.7516 30.3152 59.4516 30.2512 58 30L58 26C60.9238 25.5937 63.1246 25.3233 65 23C59.2315 24.2702 52.9074 23.9961 47 24L47 19C46.2211 20.769 46.0876 22.0359 46 24L37 24L37 17L34 17C34.5008 19.6858 34.8826 22.2699 35 25C32.3582 24.9907 28.7841 25.4687 26.7415 23.3966C23.3816 19.9881 25.4765 14.8212 21 12z"/>
<path style="fill:#98a08a; stroke:none;" d="M23 12L24 13L23 12z"/>
<path style="fill:#f7d038; stroke:none;" d="M39 12L39 14L45 14L45 12L39 12z"/>
<path style="fill:#e4edf0; stroke:none;" d="M111 12C114.959 13.6611 119.737 13 124 13C120.041 11.3389 115.263 12 111 12z"/>
<path style="fill:#f1f4df; stroke:none;" d="M141 19L141 21C149.396 21 158.821 20.4293 167 18.6065C171.638 17.5729 175.024 14.9157 179.996 15.0231C186.609 15.166 188.38 21.1547 194.09 22.6821C199.659 24.172 205.538 22.0784 211 21.3002C214.943 20.7383 219.027 21 223 21C215.243 17.745 206.073 21.6122 198.004 20.9406C190.912 20.3503 187.669 12.4933 180 12.0579C174.201 11.7286 170.981 14.9528 165.83 16.5015C158.168 18.8053 148.963 19 141 19z"/>
<path style="fill:#e5eace; stroke:none;" d="M105 13L105 15C106.635 14.4549 106.455 14.6352 107 13L105 13z"/>
<path style="fill:#f7f9f9; stroke:none;" d="M107 13C108.248 13.6848 108.548 13.7488 110 14C108.752 13.3152 108.452 13.2512 107 13z"/>
<path style="fill:#8ab2d6; stroke:none;" d="M110.667 13.3333C110.222 13.7778 111.278 13.7222 111.333 13.6667C111.778 13.2222 110.722 13.2778 110.667 13.3333z"/>
<path style="fill:#2e75b6; stroke:none;" d="M93 26C102.184 25.1981 108.22 18.2479 117.999 19.0594C121.496 19.3496 125.643 21.9456 121.793 25.2986C118.755 27.9448 113.852 28.6637 110 29L115 22C107.882 23.6923 103.467 29.5255 96 31C97.2259 33.0347 97.7026 33.3265 100 34C98.5669 36.3248 96.7825 38.5518 95.5718 41.0015C93.1112 45.98 95.5055 50.2945 101.004 50.8904C106.506 51.4867 113.505 49.8475 117.772 46.1998C122.043 42.5481 121.11 37.2564 115.981 35.1481C112.873 33.8709 109.257 33.7845 106 33C111.638 29.7491 118.367 30.0968 123.956 26.6366C128.67 23.7181 130.777 17.4304 124.941 14.3179C114.872 8.9478 96.1629 15.3583 93 26z"/>
<path style="fill:#80abd3; stroke:none;" d="M123 13L124 14L123 13z"/>
<path style="fill:#f0f4ef; stroke:none;" d="M124.667 13.3333C124.222 13.7778 125.278 13.7222 125.333 13.6667C125.778 13.2222 124.722 13.2778 124.667 13.3333z"/>
<path style="fill:#ff7344; stroke:none;" d="M12 14C14.6127 15.0977 17.1645 14.9928 20 15C17.3873 13.9023 14.8355 14.0072 12 14z"/>
<path style="fill:#f0faa0; stroke:none;" d="M20 14C8.30618 25.9483 7.86679 38.9697 14 54C15.2129 51.1103 14.9983 48.1259 15 45L26 45L26 43L16 43L16 35L25 35C24.7217 28.5177 24.1957 19.1248 20 14z"/>
<path style="fill:#a4b28c; stroke:none;" d="M21 14L22 15L21 14z"/>
<path style="fill:#e4b146; stroke:none;" d="M39 14C40.769 14.7789 42.0359 14.9124 44 15C42.231 14.2211 40.9641 14.0876 39 14z"/>
<path style="fill:#e5eace; stroke:none;" d="M101 14L101 16C102.635 15.4549 102.455 15.6352 103 14L101 14z"/>
<path style="fill:#f2f6f7; stroke:none;" d="M103.667 14.3333C103.222 14.7778 104.278 14.7222 104.333 14.6667C104.778 14.2222 103.722 14.2778 103.667 14.3333z"/>
<path style="fill:#528dc3; stroke:none;" d="M106.667 14.3333C106.222 14.7778 107.278 14.7222 107.333 14.6667C107.778 14.2222 106.722 14.2778 106.667 14.3333z"/>
<path style="fill:#dde5d4; stroke:none;" d="M126 14C127.5 16.7154 128.56 18.9277 129 22C130.484 18.3202 129.39 15.8692 126 14z"/>
<path style="fill:#ffd0c1; stroke:none;" d="M13 15C15.0521 15.8742 16.7472 15.9528 19 16C16.9479 15.1257 15.2528 15.0472 13 15z"/>
<path style="fill:#6f7678; stroke:none;" d="M22.3333 15.6667C22.2778 15.7222 22.2222 16.7778 22.6667 16.3333C22.7222 16.2778 22.7778 15.2222 22.3333 15.6667z"/>
<path style="fill:#a7b08a; stroke:none;" d="M24 15L25 16L24 15z"/>
<path style="fill:#fcfdfd; stroke:none;" d="M99.6667 15.3333C99.2223 15.7777 100.278 15.7223 100.333 15.6667C100.778 15.2222 99.7222 15.2778 99.6667 15.3333z"/>
<path style="fill:#4f8bc1; stroke:none;" d="M102.667 15.3333C102.222 15.7778 103.278 15.7222 103.333 15.6667C103.778 15.2222 102.722 15.2778 102.667 15.3333z"/>
<path style="fill:#e3e7b6; stroke:none;" d="M158 20C166.334 23.4971 172.146 16.6967 179.961 17.1736C184.772 17.4673 186.234 21.7736 190.209 23.4012C194.373 25.1061 200.558 24 205 24C201.492 22.5281 197.6 23.769 194.09 22.3974C190.97 21.1785 189.219 18.0194 186.41 16.3179C183.699 14.6765 180.059 14.8309 177 15.0548C172.863 15.3575 170.376 17.711 166.715 19.1821C163.984 20.279 160.883 19.9978 158 20z"/>
<path style="fill:#8d9581; stroke:none;" d="M24 16C28.4714 17.8763 34.1834 17 39 17C34.5286 15.1237 28.8166 16 24 16z"/>
<path style="fill:#80695e; stroke:none;" d="M39 16C44.2224 18.1914 51.3677 17 57 17C51.7776 14.8086 44.6322 16 39 16z"/>
<path style="fill:#8d9881; stroke:none;" d="M57 16C58.2483 16.6848 58.5484 16.7488 60 17C58.7517 16.3152 58.4516 16.2512 57 16z"/>
<path style="fill:#9397aa; stroke:none;" d="M60 16C62.0521 16.8742 63.7472 16.9528 66 17C63.9479 16.1258 62.2528 16.0472 60 16z"/>
<path style="fill:#cfd0d9; stroke:none;" d="M66 16L67 17L66 16z"/>
<path style="fill:#dbe7ef; stroke:none;" d="M95 20C96.7525 18.6697 97.6697 17.7525 99 16C96.7511 17.1535 96.1535 17.7511 95 20z"/>
<path style="fill:#83add4; stroke:none;" d="M99 16L100 17L99 16z"/>
<path style="fill:#b3bb8d; stroke:none;" d="M22.3333 17.6667C22.2778 17.7222 22.2222 18.7778 22.6667 18.3333C22.7222 18.2778 22.7778 17.2222 22.3333 17.6667z"/>
<path style="fill:#2d3163; stroke:none;" d="M25 17C27.8897 18.2129 30.8741 17.9983 34 18C31.1103 16.7871 28.1259 17.0017 25 17z"/>
<path style="fill:#373c67; stroke:none;" d="M37 17C41.8341 19.0338 45.9815 17.6134 47 24C47.8742 21.9479 47.9528 20.2528 48 18C52.5386 18.0536 55.5725 18.2976 57 23C57.7789 21.231 57.9124 19.9641 58 18L65 18C64.9995 22.884 65.7286 27.3925 61 30C62.5061 30.683 63.3148 30.8259 65 31C64.2913 35.4442 62.3943 36.6648 58 37L58 32C57.2211 33.769 57.0876 35.0359 57 37L50 38C55.0244 40.1083 60.7241 38.2265 66 38L66 17L37 17z"/>
<path style="fill:#6d718c; stroke:none;" d="M66 17L66 28C67.4309 24.59 67.4309 20.41 66 17z"/>
<path style="fill:#8fa476; stroke:none;" d="M130 17C129.3 27.4283 119.057 30.7794 110 32C118.208 35.443 138.066 27.6621 130 17z"/>
<path style="fill:#e2e5a5; stroke:none;" d="M140 20C138.85 25.1201 146.649 24.0672 150 23.9853C155.753 23.8448 163.511 23.9956 169 22.3511C174.508 20.7009 178.001 18.0543 184 18C178.356 15.6326 174.289 18.6121 169 20.3017C165.476 21.4275 161.637 20.8801 158 21.0394C152.121 21.2968 145.064 23.8364 140 20z"/>
<path style="fill:#858c7e; stroke:none;" d="M25 18C27.8897 19.2129 30.8741 18.9983 34 19C31.1103 17.7871 28.1259 18.0017 25 18z"/>
<path style="fill:#838377; stroke:none;" d="M37.6667 18.3333C37.2222 18.7778 38.2778 18.7222 38.3333 18.6667C38.7778 18.2222 37.7222 18.2778 37.6667 18.3333z"/>
<path style="fill:#79655f; stroke:none;" d="M39 18C41.3315 18.9845 43.4567 18.9813 46 19C43.6684 18.0155 41.5433 18.0187 39 18M48 18C50.6127 19.0977 53.1645 18.9928 56 19C53.3873 17.9023 50.8355 18.0072 48 18z"/>
<path style="fill:#858c7f; stroke:none;" d="M58 18C60.3315 18.9845 62.4567 18.9813 65 19C62.6684 18.0155 60.5433 18.0187 58 18z"/>
<path style="fill:#eff0c0; stroke:none;" d="M139 18C140.708 22.2498 143.754 22.0383 148 21.9961C154.761 21.9291 161.185 20.0045 168 20C158.142 15.8634 148.472 24.3982 139 18z"/>
<path style="fill:#d5d98c; stroke:none;" d="M138 23C142.112 27.8578 148.031 27.3676 154 26.831C158.515 26.4252 163.626 25.8853 165.486 31.1806C166.13 33.0135 165.979 35.0931 166 37C169.294 34.1876 171.822 31.4239 176 30C175.813 29.1592 175.223 27.8333 175.451 26.8596C177.087 19.8805 186.407 24.5483 181.721 30.3904C181.026 31.258 179.922 31.516 179 32C179.255 36.46 177.243 39.2664 175 43C179.516 40.7802 180.969 36.1257 185.043 33.4606C187.449 31.887 189.41 32.9692 192 32.777C197.363 32.3791 199.076 29.9832 203 35C208.034 31.7158 216.437 25.0654 219.856 33.9745C220.356 35.2773 220.069 36.6686 220 38C226.492 33.4141 228.513 25.4207 237 29C235.256 25.8321 233.565 25.2688 230 25C231.801 24.4382 233.122 24.1759 235 24C230.796 22.2533 227.27 24.1976 223 24.7909C219.357 25.2971 215.648 24.7193 212 25.1289C208.582 25.5126 205.479 26.8549 202 26.9815C198.719 27.1009 194.095 27.6843 191.144 25.9722C186.644 23.3614 187.237 18.4656 180.996 18.1096C175.585 17.8008 172 21.4841 167 22.6065C158.208 24.5801 146.831 24.6395 138 23z"/>
<path style="fill:#f2f2c4; stroke:none;" d="M205 22C208.036 23.1851 210.795 22.3081 214 22.0895C221.338 21.5891 228.688 20.0613 236 20L236 18C230.331 18.0006 226.366 19.6331 220.985 20.6605C215.834 21.6442 210.245 21.3371 205 22z"/>
<path style="fill:#a0a888; stroke:none;" d="M25.3333 19.6667C25.2778 19.7222 25.2222 20.7778 25.6667 20.3333C25.7222 20.2778 25.7778 19.2222 25.3333 19.6667z"/>
<path style="fill:#f3fda1; stroke:none;" d="M26 19L26 24L34 24L34 19L26 19z"/>
<path style="fill:#8b9380; stroke:none;" d="M34 19L34 22C34.6961 20.4463 34.6961 20.5537 34 19z"/>
<path style="fill:#717778; stroke:none;" d="M36.3333 19.6667C36.2778 19.7222 36.2222 20.7778 36.6667 20.3333C36.7222 20.2778 36.7778 19.2222 36.3333 19.6667z"/>
<path style="fill:#efe88f; stroke:none;" d="M37 19L37 24L39 24L39 19L37 19z"/>
<path style="fill:#d5984f; stroke:none;" d="M39 19L39 23L45 23L45 19L39 19z"/>
<path style="fill:#be8b53; stroke:none;" d="M45 19L45 23L39 23C41.3315 23.9845 43.4567 23.9813 46 24C45.9124 22.0359 45.7789 20.769 45 19z"/>
<path style="fill:#96765a; stroke:none;" d="M48 19L48 24L56 24C53.6684 23.0155 51.5433 23.0187 49 23C48.8259 21.3148 48.683 20.506 48 19z"/>
<path style="fill:#d49750; stroke:none;" d="M49 19L49 23L56 23L56 19L49 19z"/>
<path style="fill:#6c5e61; stroke:none;" d="M56 19L56 24C56.8299 21.9695 56.8299 21.0305 56 19z"/>
<path style="fill:#9fa786; stroke:none;" d="M58 19C58.0642 21.9934 57.9461 23.3456 61 24L58 19z"/>
<path style="fill:#f2fca0; stroke:none;" d="M59 19L59 23L64 23C62.873 20.1595 62.0133 19.5083 59 19z"/>
<path style="fill:#f8fdce; stroke:none;" d="M63.3333 19.6667C63.2778 19.7222 63.2222 20.7778 63.6667 20.3333C63.7222 20.2778 63.7778 19.2222 63.3333 19.6667z"/>
<path style="fill:#a9abbc; stroke:none;" d="M64 19L64 23C64.7102 21.2405 64.7102 20.7595 64 19z"/>
<path style="fill:#94b9d9; stroke:none;" d="M110.667 19.3333C110.222 19.7777 111.278 19.7222 111.333 19.6667C111.778 19.2222 110.722 19.2778 110.667 19.3333z"/>
<path style="fill:#ecf1f1; stroke:none;" d="M112 19C115.163 20.3274 118.586 19.9996 122 20C118.837 18.6726 115.414 19.0004 112 19z"/>
<path style="fill:#d0d9c8; stroke:none;" d="M122 19L122 21L124 21C123.455 19.3648 123.635 19.5451 122 19z"/>
<path style="fill:#e4eae4; stroke:none;" d="M236 19C238.035 20.9832 240.527 22.6693 242.077 25.0934C246.017 31.255 248.763 46.4349 244.258 52.8148C241.574 56.6143 236.415 58.698 232 59.5324C215.504 62.6499 198.511 58.832 182.015 59.0332C178.195 59.0798 174.818 60.8407 170.996 60.9815C159.531 61.4038 147.441 61.7484 136 60.9097C131.597 60.587 127.45 59.031 123 59.0293C114.012 59.0259 105.1 61 96 61C104.385 66.7282 115.862 60.2699 125 61.4252C148.992 64.4581 173.93 60.9853 198 62.0394C206.138 62.3957 213.854 62.0031 222 62C226.865 61.9981 232.433 62.7236 237 60.7222C240.543 59.1697 244.66 56.3702 246.543 52.9066C251.835 43.1738 247.478 21.731 236 19z"/>
<path style="fill:#f4f7f6; stroke:none;" d="M94 20L95 21L94 20z"/>
<path style="fill:#79a7d0; stroke:none;" d="M106 20L107 21L106 20z"/>
<path style="fill:#b9c6aa; stroke:none;" d="M107.333 20.6667C107.278 20.7223 107.222 21.7778 107.667 21.3333C107.722 21.2778 107.778 20.2222 107.333 20.6667z"/>
<path style="fill:#f3f6f6; stroke:none;" d="M108.667 20.3333C108.222 20.7778 109.278 20.7222 109.333 20.6667C109.778 20.2222 108.722 20.2778 108.667 20.3333z"/>
<path style="fill:#cbd5c2; stroke:none;" d="M110 20C111.223 21.1952 111.42 21.3164 113 22C111.777 20.8048 111.58 20.6836 110 20z"/>
<path style="fill:#a8b894; stroke:none;" d="M112 20C113.506 20.683 114.315 20.8259 116 21C114.494 20.317 113.685 20.1741 112 20z"/>
<path style="fill:#92a677; stroke:none;" d="M116 20C118.308 21.7595 120.092 21.9172 123 22C120.692 20.2405 118.908 20.0828 116 20z"/>
<path style="fill:#eaeaac; stroke:none;" d="M192 24C197.463 26.2925 204.271 24.715 210 24.1698C219.181 23.296 229.185 22.2495 238 25C238.726 22.8208 238.439 23.2197 240 24C236.625 17.8799 229.687 20.3501 224 21.4861C220.031 22.2791 216.002 21.7703 212 22.1705C205.197 22.8508 198.897 24 192 24z"/>
<path style="fill:#919882; stroke:none;" d="M23 21L23 24C23.6961 22.4463 23.6961 22.5537 23 21z"/>
<path style="fill:#616873; stroke:none;" d="M25.3333 21.6667C25.2778 21.7222 25.2222 22.7778 25.6667 22.3333C25.7222 22.2778 25.7778 21.2222 25.3333 21.6667z"/>
<path style="fill:#dcdf98; stroke:none;" d="M88 21C86.6003 28.5392 86.8237 36.3485 87.0147 44C87.1295 48.6029 87.6817 52.7445 92 55C90.087 47.7692 91.2949 42.2195 90.892 35C90.6153 30.0421 89.4035 26.0551 90 21L88 21z"/>
<path style="fill:#e5eef2; stroke:none;" d="M93.3333 21.6667C93.2778 21.7222 93.2222 22.7778 93.6667 22.3333C93.7222 22.2778 93.7778 21.2222 93.3333 21.6667z"/>
<path style="fill:#9bbcd9; stroke:none;" d="M94 21L95 22L94 21z"/>
<path style="fill:#8bb2d5; stroke:none;" d="M103 21L104 22L103 21z"/>
<path style="fill:#d3dccd; stroke:none;" d="M101 26L107 22C103.82 21.2761 102.354 23.2642 101 26z"/>
<path style="fill:#8fa476; stroke:none;" d="M94 27L94 29C101.223 28.8501 105.333 26.2514 111 22C105.73 20.4482 99.7433 26.4948 94 27z"/>
<path style="fill:#dde7ed; stroke:none;" d="M113 21L115 24C116.118 21.8603 115.251 21.4732 113 21z"/>
<path style="fill:#d2d78b; stroke:none;" d="M116 21L118 26C121.24 25.0746 122.495 24.012 124 21C121.066 21.6401 118.934 21.6401 116 21z"/>
<path style="fill:#d4e2ec; stroke:none;" d="M124 21L122 26C123.848 24.2198 124.566 23.5087 124 21z"/>
<path style="fill:#b3bc8d; stroke:none;" d="M34.3333 22.6667C34.2778 22.7222 34.2222 23.7778 34.6667 23.3333C34.7222 23.2778 34.7778 22.2222 34.3333 22.6667z"/>
<path style="fill:#d2e0eb; stroke:none;" d="M110.667 22.3333C110.222 22.7777 111.278 22.7222 111.333 22.6667C111.778 22.2222 110.722 22.2778 110.667 22.3333z"/>
<path style="fill:#bfcbb3; stroke:none;" d="M128.667 22.3333C128.222 22.7778 129.278 22.7222 129.333 22.6667C129.778 22.2222 128.722 22.2778 128.667 22.3333z"/>
<path style="fill:#eef3f4; stroke:none;" d="M177 22C178.506 22.683 179.315 22.8259 181 23C179.494 22.317 178.685 22.1741 177 22z"/>
<path style="fill:#dee4cc; stroke:none;" d="M240 22C240.318 24.8771 240.62 26.3344 243 28C242.579 25.1571 242.061 23.988 240 22z"/>
<path style="fill:#81877c; stroke:none;" d="M61 23C62.2484 23.6848 62.5484 23.7488 64 24C62.7517 23.3152 62.4516 23.2512 61 23z"/>
<path style="fill:#dfe9ed; stroke:none;" d="M92 23L92 27L97 27C95.1854 25.7427 93.5653 24.5864 92 23z"/>
<path style="fill:#6c9ecc; stroke:none;" d="M93 23L94 24L93 23z"/>
<path style="fill:#e2ebf1; stroke:none;" d="M107 25C108.58 24.3164 108.777 24.1952 110 23C108.42 23.6836 108.223 23.8048 107 25z"/>
<path style="fill:#79a7d0; stroke:none;" d="M110 23L111 24L110 23z"/>
<path style="fill:#9fbfdb; stroke:none;" d="M114 23L115 24L114 23z"/>
<path style="fill:#8fa476; stroke:none;" d="M113 27C115.936 26.3733 117.013 25.8527 118 23C115.643 24.1036 114.624 24.9564 113 27z"/>
<path style="fill:#eef3f3; stroke:none;" d="M128 23L129 24L128 23z"/>
<path style="fill:#b7cfe2; stroke:none;" d="M176 23L176 25C177.635 24.455 177.455 24.6351 178 23L176 23z"/>
<path style="fill:#2e75b6; stroke:none;" d="M177 29C179.85 27.4435 180.503 26.2071 181 23C177.464 24.0729 176.46 25.3251 177 29z"/>
<path style="fill:#c1d5e2; stroke:none;" d="M181 23L181 27C181.71 25.2406 181.71 24.7595 181 23z"/>
<path style="fill:#e0e29c; stroke:none;" d="M188 23C190.455 27.4523 194.318 27 199 27C203.959 27 208.172 25.6709 213 25.1289C218.078 24.5588 222.965 25.1987 228 24C224.777 22.8439 221.411 23.902 218 23.9853C207.79 24.2348 197.923 26.1457 188 23z"/>
<path style="fill:#d1d691; stroke:none;" d="M238 23C235.408 24.2822 232.896 24.0282 230 24C232.536 25.4047 235.354 25.9965 236.523 29.0231C237.906 32.6033 235.835 42.366 240 43C238.614 47.8359 232.688 54.0494 227.002 52.9298C224.142 52.3668 222.013 49.8975 220 48C216.923 49.897 213.663 52.9229 210 53.5224C206.512 54.0933 204.271 51.2437 201 51.0934C198.494 50.9782 196.506 53.0059 194 52.9074C191.532 52.8104 189.541 51.1009 187 51.0494C178.769 50.8827 172.721 54.8216 166 49C158.774 53.3048 155.419 54.05 149 48C143.613 51.32 140.604 54.4361 135 50C129.637 52.5461 127.407 50.403 124 46C114.146 53.3584 104.162 54.9664 92 55C101.397 61.9928 114.406 55.1616 125 56.1698C149.064 58.4598 173.812 57 198 57C209.45 57 224.03 59.3829 234.996 55.7755C247.646 51.6139 246.156 30.7067 238 23z"/>
<path style="fill:#7e847c; stroke:none;" d="M26 24C27.769 24.7789 29.0359 24.9124 31 25C29.231 24.2211 27.9641 24.0876 26 24z"/>
<path style="fill:#6c7074; stroke:none;" d="M31 24C32.506 24.683 33.3148 24.8259 35 25C33.494 24.317 32.6852 24.1741 31 24z"/>
<path style="fill:#70a0cd; stroke:none;" d="M100 24L101 25L100 24z"/>
<path style="fill:#8ab2d6; stroke:none;" d="M113 24L112 26C113.263 25.0287 113.392 25.3062 113 24z"/>
<path style="fill:#e9efed; stroke:none;" d="M114 24L115 25L114 24z"/>
<path style="fill:#eff4f6; stroke:none;" d="M127 24L126 26C127.263 25.0287 127.392 25.3063 127 24z"/>
<path style="fill:#f6f8f9; stroke:none;" d="M175.333 24.6667C175.278 24.7222 175.222 25.7778 175.667 25.3333C175.722 25.2777 175.778 24.2222 175.333 24.6667z"/>
<path style="fill:#8fa476; stroke:none;" d="M182 24C181.075 27.2404 180.012 28.4953 177 30C177.329 35.7835 173.272 39.0338 171 44C176.616 42.4093 180.129 37.8656 179 32C183.153 30.6881 183.772 28.1423 184 24L182 24z"/>
<path style="fill:#7b837c; stroke:none;" d="M61 25C62.5061 25.683 63.3148 25.8259 65 26C63.4939 25.317 62.6852 25.1741 61 25z"/>
<path style="fill:#83add4; stroke:none;" d="M97 25L98 26L97 25z"/>
<path style="fill:#f7fafa; stroke:none;" d="M98 25C99.2484 25.6848 99.5484 25.7488 101 26C99.7517 25.3152 99.4516 25.2512 98 25z"/>
<path style="fill:#c8dae7; stroke:none;" d="M105 27C106.58 26.3164 106.777 26.1952 108 25C106.42 25.6836 106.223 25.8048 105 27z"/>
<path style="fill:#f1f5f4; stroke:none;" d="M113 25L114 26L113 25z"/>
<path style="fill:#f7faf9; stroke:none;" d="M121 25L122 26L121 25z"/>
<path style="fill:#bac7ac; stroke:none;" d="M127 25L128 26L127 25z"/>
<path style="fill:#8b9380; stroke:none;" d="M24.3333 26.6667C24.2778 26.7222 24.2222 27.7778 24.6667 27.3333C24.7222 27.2778 24.7778 26.2222 24.3333 26.6667z"/>
<path style="fill:#7c827b; stroke:none;" d="M27 26C28.769 26.7789 30.0359 26.9124 32 27C30.231 26.2211 28.9641 26.0876 27 26z"/>
<path style="fill:#6d514e; stroke:none;" d="M32 26C33.2483 26.6848 33.5484 26.7488 35 27C33.7516 26.3152 33.4516 26.2512 32 26z"/>
<path style="fill:#7f5847; stroke:none;" d="M37 26L37 31C37.683 29.4939 37.8259 28.6852 38 27L46 27C43.1103 25.7871 40.1259 26.0017 37 26z"/>
<path style="fill:#604f59; stroke:none;" d="M46 26L46 31C46.8299 28.9695 46.8299 28.0305 46 26z"/>
<path style="fill:#695154; stroke:none;" d="M48 26L48 30C48.7102 28.2405 48.7102 27.7595 48 26z"/>
<path style="fill:#ac6431; stroke:none;" d="M49 26L49 30L56 30L56 26L49 26z"/>
<path style="fill:#604f59; stroke:none;" d="M56 26L56 30C56.7102 28.2405 56.7102 27.7595 56 26z"/>
<path style="fill:#7a564b; stroke:none;" d="M58 26C58.2107 28.7386 58.3025 29.422 61 30L58 26z"/>
<path style="fill:#ac612d; stroke:none;" d="M59 26L59 29C59.6961 27.4463 59.6961 27.5537 59 26z"/>
<path style="fill:#c08e4f; stroke:none;" d="M60 26L60 29C60.6961 27.4463 60.6961 27.5537 60 26z"/>
<path style="fill:#f4ffa1; stroke:none;" d="M61 26L61 29L64 29L64 26L61 26z"/>
<path style="fill:#a4ac88; stroke:none;" d="M64 26L64 29C64.6961 27.4463 64.6961 27.5537 64 26z"/>
<path style="fill:#b6c3a5; stroke:none;" d="M97.6667 26.3333C97.2222 26.7778 98.2778 26.7222 98.3333 26.6667C98.7778 26.2222 97.7222 26.2778 97.6667 26.3333z"/>
<path style="fill:#9fbfdb; stroke:none;" d="M111 26L112 27L111 26z"/>
<path style="fill:#d1d9c8; stroke:none;" d="M112 26L112 28L114 28C113.455 26.3648 113.635 26.5451 112 26z"/>
<path style="fill:#c6d8e5; stroke:none;" d="M116 26L116 28L118 28C117.455 26.3648 117.635 26.5451 116 26z"/>
<path style="fill:#f3f6f4; stroke:none;" d="M117 26C118.248 26.6848 118.548 26.7488 120 27C118.752 26.3152 118.452 26.2512 117 26z"/>
<path style="fill:#9cbdda; stroke:none;" d="M120 26L121 27L120 26z"/>
<path style="fill:#d5dfd3; stroke:none;" d="M123 28C124.58 27.3164 124.777 27.1952 126 26C124.42 26.6836 124.223 26.8048 123 28z"/>
<path style="fill:#dbe7ed; stroke:none;" d="M158 29L162 27C159.692 26.4424 159.244 27.0036 158 29z"/>
<path style="fill:#e1e5b3; stroke:none;" d="M174.333 26.6667C174.278 26.7222 174.222 27.7778 174.667 27.3333C174.722 27.2777 174.778 26.2222 174.333 26.6667z"/>
<path style="fill:#c3d7e5; stroke:none;" d="M175 26L176 30C176.393 28.076 176.146 27.6405 175 26z"/>
<path style="fill:#dbe7ed; stroke:none;" d="M229 29L233 27C230.692 26.4424 230.244 27.0036 229 29z"/>
<path style="fill:#f3fda1; stroke:none;" d="M27 27C27.7109 29.8847 28.115 31.161 31 32L31 27L27 27z"/>
<path style="fill:#eeba70; stroke:none;" d="M31 27L31 32C31.8299 29.9695 31.8299 29.0305 31 27z"/>
<path style="fill:#b6612d; stroke:none;" d="M32 27C33.2483 27.6848 33.5484 27.7488 35 28C33.7517 27.3152 33.4516 27.2512 32 27z"/>
<path style="fill:#714f59; stroke:none;" d="M35.3333 27.6667C35.2778 27.7222 35.2222 28.7778 35.6667 28.3333C35.7222 28.2778 35.7778 27.2222 35.3333 27.6667z"/>
<path style="fill:#ad6531; stroke:none;" d="M38 27C40.6012 28.4149 43.1979 30.1242 46 31L46 27L38 27z"/>
<path style="fill:#e9f0f2; stroke:none;" d="M103 29C104.58 28.3164 104.777 28.1952 106 27C104.42 27.6836 104.223 27.8048 103 29z"/>
<path style="fill:#e4edf3; stroke:none;" d="M110 27L110 29L112 29L112 27L110 27z"/>
<path style="fill:#f4f7f9; stroke:none;" d="M114.667 27.3333C114.222 27.7778 115.278 27.7222 115.333 27.6667C115.778 27.2222 114.722 27.2778 114.667 27.3333z"/>
<path style="fill:#8bb3d6; stroke:none;" d="M122 27L123 28L122 27z"/>
<path style="fill:#a1c0db; stroke:none;" d="M160.667 27.3333C160.222 27.7778 161.278 27.7222 161.333 27.6667C161.778 27.2223 160.722 27.2778 160.667 27.3333z"/>
<path style="fill:#f2f6f7; stroke:none;" d="M162 27L163 28L162 27z"/>
<path style="fill:#d7ddbf; stroke:none;" d="M163 27L163 31C163.71 29.2405 163.71 28.7595 163 27z"/>
<path style="fill:#d0dacb; stroke:none;" d="M177 29C179.509 29.5661 180.22 28.8476 182 27L177 29z"/>
<path style="fill:#a1c0db; stroke:none;" d="M231.667 27.3333C231.222 27.7778 232.278 27.7222 232.333 27.6667C232.778 27.2223 231.722 27.2778 231.667 27.3333z"/>
<path style="fill:#f2f6f7; stroke:none;" d="M233 27L234 28L233 27z"/>
<path style="fill:#d7ddbf; stroke:none;" d="M234 27L234 31C234.71 29.2405 234.71 28.7595 234 27z"/>
<path style="fill:#c9d193; stroke:none;" d="M24.3333 28.6667C24.2778 28.7222 24.2222 29.7778 24.6667 29.3333C24.7222 29.2778 24.7778 28.2222 24.3333 28.6667z"/>
<path style="fill:#ff6830; stroke:none;" d="M32 28L32 31L35 31L35 28L32 28z"/>
<path style="fill:#ff6632; stroke:none;" d="M38 28L38 31L43 31L43 28L38 28z"/>
<path style="fill:#686e74; stroke:none;" d="M66 28L66 38C67.3457 34.793 67.3457 31.207 66 28z"/>
<path style="fill:#f0fba4; stroke:none;" d="M67 28C66.9961 33.0037 67.4651 37.341 62 39L62 43C58.4503 43 54.5311 43.4742 51.0278 42.8889C49.3823 42.614 47.8166 41.2382 46.1389 41.4167C43.3243 41.7161 41.0591 42.9929 38 43C34.3445 43.0085 29.9057 41.7734 29 46C39.8645 44.6269 51.0249 45 62 45L62 53L58 53C59.2224 54.733 60.0088 55.1514 62 56C67.0152 48.3877 70.7599 36.9603 67 28z"/>
<path style="fill:#d1d796; stroke:none;" d="M100 28C101.248 28.6848 101.548 28.7488 103 29C101.752 28.3152 101.452 28.2512 100 28z"/>
<path style="fill:#76a5cf; stroke:none;" d="M112 28C113.248 28.6848 113.548 28.7488 115 29C113.752 28.3152 113.452 28.2512 112 28z"/>
<path style="fill:#d8e1d8; stroke:none;" d="M118 29C119.943 29.6218 120.949 29.4358 123 29C121.057 28.3782 120.051 28.5642 118 29z"/>
<path style="fill:#c8dae5; stroke:none;" d="M143 31C144.457 29.8966 144.897 29.4566 146 28C143.876 28.8993 143.899 28.8764 143 31z"/>
<path style="fill:#2e75b6; stroke:none;" d="M140 45C141.946 39.7572 145.72 35.4452 147 30C139.397 32.2488 135.344 40.7263 128 44C130.22 39.2374 134.559 36.133 136 31C130.672 31.829 125.921 36.3866 125.272 41.9992C124.343 50.0303 131.231 48.7151 134.745 44.0255C135.698 42.7536 136.296 41.4118 137 40L136 50C140.965 49.4471 143.98 46.7343 148 44C152.364 53.0534 159.977 49.1163 166 44C167.933 53.2689 175.291 48.4512 180 44L181 49L184 49C186.837 44.8505 189.943 40.986 194 38C191.514 42.5571 189.516 45.7816 191 51C194.631 49.4053 197.691 47.1594 201 45C204.707 55.551 213.731 48.1446 219 43C221.953 53.3978 231.949 49.5395 237 43C233.599 44.046 230.551 45.5377 227 46C233.665 40.5078 234.541 36.3011 233 28C224.693 30.6553 220.813 41.947 212.005 45.2176C207.96 46.7192 205.813 43.8913 207.016 39.9969C208.119 36.4276 210.817 34.4989 214 33L209 40C214.204 38.5341 216.597 35.3418 217 30C205.375 30.6044 203.832 42.0529 194 45C195.93 40.0075 199.587 36.5229 200 31C193.33 32.7344 188.737 38.2659 184 43C185.529 39.5429 187.788 36.603 189 33C182.73 34.7747 181.391 41.0632 175.965 43.8819C169.016 47.4918 172.6 39.6896 174.368 37.0247C175.449 35.396 176.217 33.7808 177 32C170.106 31.0254 168.852 37.19 165.186 41.6204C162.814 44.4875 159.531 45.5377 156 46C162.665 40.5078 163.541 36.3011 162 28C153.185 30.8176 149.928 42.6396 140 45z"/>
<path style="fill:#adc8df; stroke:none;" d="M162 28L162 31C162.696 29.4463 162.696 29.5537 162 28M233 28L233 31C233.696 29.4463 233.696 29.5537 233 28z"/>
<path style="fill:#d9e0cc; stroke:none;" d="M243 28C243.003 32.3797 243.078 36.0057 245 40C246.52 36.1053 245.34 31.3678 243 28z"/>
<path style="fill:#a6af89; stroke:none;" d="M27 29L27 32C27.6961 30.4463 27.6961 30.5537 27 29z"/>
<path style="fill:#a2574e; stroke:none;" d="M35 29L35 32C35.6961 30.4463 35.6961 30.5537 35 29z"/>
<path style="fill:#868e80; stroke:none;" d="M61 29C62.2483 29.6848 62.5484 29.7488 64 30C62.7516 29.3152 62.4516 29.2512 61 29z"/>
<path style="fill:#e6ecde; stroke:none;" d="M97.6667 29.3333C97.2222 29.7777 98.2778 29.7222 98.3333 29.6667C98.7778 29.2222 97.7222 29.2778 97.6667 29.3333z"/>
<path style="fill:#fdfefe; stroke:none;" d="M99 29C100.248 29.6848 100.548 29.7488 102 30C100.752 29.3152 100.452 29.2512 99 29z"/>
<path style="fill:#bbd1e3; stroke:none;" d="M102.667 29.3333C102.222 29.7778 103.278 29.7222 103.333 29.6667C103.778 29.2222 102.722 29.2778 102.667 29.3333z"/>
<path style="fill:#c6d1be; stroke:none;" d="M117.333 29.6667C117.278 29.7223 117.222 30.7778 117.667 30.3333C117.722 30.2778 117.778 29.2222 117.333 29.6667z"/>
<path style="fill:#73a2ce; stroke:none;" d="M145 29L146 30L145 29z"/>
<path style="fill:#ecf1f1; stroke:none;" d="M146 29L147 33C147.751 30.9535 147.656 30.4043 146 29z"/>
<path style="fill:#f9fbfb; stroke:none;" d="M157.333 29.6667C157.278 29.7222 157.222 30.7778 157.667 30.3333C157.722 30.2777 157.778 29.2222 157.333 29.6667z"/>
<path style="fill:#a0b17b; stroke:none;" d="M164 29L164 33L166 33L166 29L164 29z"/>
<path style="fill:#f7f9f9; stroke:none;" d="M211.667 29.3333C211.222 29.7778 212.278 29.7222 212.333 29.6667C212.778 29.2222 211.722 29.2778 211.667 29.3333z"/>
<path style="fill:#d5e3ea; stroke:none;" d="M213 29C214.648 29.9241 216.175 30.4494 218 31C216.46 29.1969 215.403 29.168 213 29z"/>
<path style="fill:#f9fbfb; stroke:none;" d="M228.333 29.6667C228.278 29.7222 228.222 30.7778 228.667 30.3333C228.722 30.2777 228.778 29.2222 228.333 29.6667z"/>
<path style="fill:#a0b17c; stroke:none;" d="M235 29L235 33L237 33L237 29L235 29z"/>
<path style="fill:#625058; stroke:none;" d="M49 30C51.3316 30.9845 53.4567 30.9813 56 31C53.6684 30.0155 51.5433 30.0187 49 30z"/>
<path style="fill:#e2ecf0; stroke:none;" d="M95 30L95 34C95.9114 32.6234 96.4038 31.5601 97 30L95 30z"/>
<path style="fill:#6c9ecc; stroke:none;" d="M97.6667 30.3333C97.2222 30.7777 98.2778 30.7222 98.3333 30.6667C98.7778 30.2222 97.7222 30.2778 97.6667 30.3333z"/>
<path style="fill:#70a0cd; stroke:none;" d="M111.667 30.3333C111.222 30.7777 112.278 30.7222 112.333 30.6667C112.778 30.2222 111.722 30.2778 111.667 30.3333z"/>
<path style="fill:#c9d4bf; stroke:none;" d="M112 32C113.58 31.3164 113.777 31.1952 115 30C113.42 30.6836 113.223 30.8048 112 32z"/>
<path style="fill:#e0e8e5; stroke:none;" d="M115.667 30.3333C115.222 30.7777 116.278 30.7222 116.333 30.6667C116.778 30.2222 115.722 30.2778 115.667 30.3333z"/>
<path style="fill:#dee9f0; stroke:none;" d="M131 30C130.043 31.5167 129.613 32.3385 129 34C130.63 32.4852 131.163 32.1447 131 30z"/>
<path style="fill:#fdfefe; stroke:none;" d="M132 30C133.769 30.7789 135.036 30.9124 137 31C135.231 30.2211 133.964 30.0876 132 30z"/>
<path style="fill:#eff4f5; stroke:none;" d="M142.333 30.6667C142.278 30.7222 142.222 31.7778 142.667 31.3333C142.722 31.2777 142.778 30.2222 142.333 30.6667z"/>
<path style="fill:#f9fbfa; stroke:none;" d="M173 30C174.506 30.683 175.315 30.8259 177 31C175.494 30.317 174.685 30.1741 173 30z"/>
<path style="fill:#e4ecf0; stroke:none;" d="M197 30C198.248 30.6848 198.548 30.7488 200 31C198.752 30.3152 198.452 30.2512 197 30z"/>
<path style="fill:#e9f0f3; stroke:none;" d="M209.667 30.3333C209.222 30.7778 210.278 30.7222 210.333 30.6667C210.778 30.2222 209.722 30.2778 209.667 30.3333z"/>
<path style="fill:#8ab2d6; stroke:none;" d="M211 30L212 31L211 30z"/>
<path style="fill:#d2dccf; stroke:none;" d="M218 30L218 34C218.71 32.2405 218.71 31.7595 218 30z"/>
<path style="fill:#f5fcc1; stroke:none;" d="M9 31L9 43C10.5124 39.3957 10.5124 34.6043 9 31z"/>
<path style="fill:#878f7f; stroke:none;" d="M25.3333 31.6667C25.2778 31.7222 25.2222 32.7778 25.6667 32.3333C25.7222 32.2778 25.7778 31.2222 25.3333 31.6667z"/>
<path style="fill:#d45e3f; stroke:none;" d="M32 31C33.2483 31.6848 33.5484 31.7488 35 32C33.7517 31.3152 33.4516 31.2512 32 31z"/>
<path style="fill:#794f59; stroke:none;" d="M38 31C39.769 31.7789 41.0359 31.9124 43 32C41.231 31.2211 39.9641 31.0876 38 31z"/>
<path style="fill:#665b61; stroke:none;" d="M59.6667 31.3333C59.2222 31.7778 60.2778 31.7222 60.3333 31.6667C60.7778 31.2222 59.7222 31.2778 59.6667 31.3333z"/>
<path style="fill:#a1a987; stroke:none;" d="M61 31C62.2483 31.6848 62.5484 31.7488 64 32L64 36C64.7789 34.231 64.9124 32.9641 65 31L61 31z"/>
<path style="fill:#fbffd8; stroke:none;" d="M68 31L68 42C69.4309 38.59 69.4309 34.41 68 31z"/>
<path style="fill:#8fb4d6; stroke:none;" d="M107 31L108 32L107 31z"/>
<path style="fill:#ecf2f4; stroke:none;" d="M107 32C108.943 32.6218 109.949 32.4358 112 32C109.956 31.2256 109.155 31.4078 107 32z"/>
<path style="fill:#9bbcdb; stroke:none;" d="M136.333 31.6667C136.278 31.7222 136.222 32.7778 136.667 32.3333C136.722 32.2777 136.778 31.2222 136.333 31.6667z"/>
<path style="fill:#cad5bf; stroke:none;" d="M137.333 31.6667C137.278 31.7222 137.222 32.7778 137.667 32.3333C137.722 32.2777 137.778 31.2222 137.333 31.6667z"/>
<path style="fill:#8fa476; stroke:none;" d="M148 31L142 43C147.343 41.0087 149.437 36.4664 150 31L148 31z"/>
<path style="fill:#f4f7f4; stroke:none;" d="M156 31L157 32L156 31z"/>
<path style="fill:#73a2ce; stroke:none;" d="M157 31L158 32L157 31z"/>
<path style="fill:#e9f0f3; stroke:none;" d="M163.333 31.6667C163.278 31.7222 163.222 32.7778 163.667 32.3333C163.722 32.2777 163.778 31.2222 163.333 31.6667z"/>
<path style="fill:#ebf0e6; stroke:none;" d="M170 33C171.58 32.3164 171.777 32.1952 173 31C171.42 31.6836 171.223 31.8048 170 33z"/>
<path style="fill:#94b8d9; stroke:none;" d="M176 31L177 32L176 31z"/>
<path style="fill:#eaf0ef; stroke:none;" d="M177 31L177 34C177.696 32.4463 177.696 32.5537 177 31z"/>
<path style="fill:#e8eac3; stroke:none;" d="M186 31C187.248 31.6848 187.548 31.7488 189 32C187.752 31.3152 187.452 31.2512 186 31z"/>
<path style="fill:#f4f7f4; stroke:none;" d="M194 33C195.58 32.3164 195.777 32.1952 197 31C195.42 31.6836 195.223 31.8048 194 33z"/>
<path style="fill:#f5f8f8; stroke:none;" d="M200.333 31.6667C200.278 31.7222 200.222 32.7778 200.667 32.3333C200.722 32.2778 200.778 31.2222 200.333 31.6667z"/>
<path style="fill:#d0dfea; stroke:none;" d="M205 34C206.949 33.0643 207.55 32.6076 209 31C207.051 31.9357 206.45 32.3924 205 34z"/>
<path style="fill:#7eaad1; stroke:none;" d="M209 31L210 32L209 31z"/>
<path style="fill:#70a0cd; stroke:none;" d="M217 31L217 34C217.696 32.4463 217.696 32.5537 217 31z"/>
<path style="fill:#f4f7f4; stroke:none;" d="M227 31L228 32L227 31z"/>
<path style="fill:#73a2ce; stroke:none;" d="M228 31L229 32L228 31z"/>
<path style="fill:#e9f0f3; stroke:none;" d="M234.333 31.6667C234.278 31.7222 234.222 32.7778 234.667 32.3333C234.722 32.2778 234.778 31.2222 234.333 31.6667z"/>
<path style="fill:#757b7a; stroke:none;" d="M28 32C29.2483 32.6848 29.5484 32.7488 31 33C29.7517 32.3152 29.4516 32.2512 28 32z"/>
<path style="fill:#7f5749; stroke:none;" d="M49 32C51.3316 32.9845 53.4567 32.9813 56 33C53.6684 32.0155 51.5433 32.0187 49 32z"/>
<path style="fill:#614f59; stroke:none;" d="M56 32L56 37C56.8299 34.9695 56.8299 34.0305 56 32z"/>
<path style="fill:#7a564b; stroke:none;" d="M58 32C58.0642 34.9934 57.9461 36.3456 61 37L58 32z"/>
<path style="fill:#ad622e; stroke:none;" d="M59 32L59 36C59.7102 34.2405 59.7102 33.7595 59 32z"/>
<path style="fill:#c28f4e; stroke:none;" d="M60 32L60 36C60.7102 34.2405 60.7102 33.7595 60 32z"/>
<path style="fill:#f0faa0; stroke:none;" d="M61 32L61 36L64 36L64 32L61 32z"/>
<path style="fill:#b9d0e4; stroke:none;" d="M106 32L107 33L106 32z"/>
<path style="fill:#8fa476; stroke:none;" d="M138 32C137.014 33.4785 137 33.2032 137 35C138.766 34.0214 138.955 33.7782 138 32z"/>
<path style="fill:#f0f4ef; stroke:none;" d="M141 32L142 33L141 32z"/>
<path style="fill:#6e9fcb; stroke:none;" d="M142 32L143 33L142 32z"/>
<path style="fill:#f2f5ef; stroke:none;" d="M155 32L156 33L155 32z"/>
<path style="fill:#8bb3d6; stroke:none;" d="M156 32L157 33L156 32z"/>
<path style="fill:#c0d5e3; stroke:none;" d="M185 32L189 35C190.095 32.0949 187.45 32.1205 185 32z"/>
<path style="fill:#8fa476; stroke:none;" d="M201 32C200.357 36.2439 197.908 39.2372 196 43C200.55 41.2766 204.078 36.4998 201 32M219 32C216.038 37.7061 210.289 39.9583 207 45C212.921 44.3902 224.011 39.2442 219 32z"/>
<path style="fill:#f2f5ef; stroke:none;" d="M226 32L227 33L226 32z"/>
<path style="fill:#8bb3d6; stroke:none;" d="M227 32L228 33L227 32z"/>
<path style="fill:#c4cc91; stroke:none;" d="M25.3333 33.6667C25.2778 33.7222 25.2222 34.7778 25.6667 34.3333C25.7222 34.2778 25.7778 33.2222 25.3333 33.6667z"/>
<path style="fill:#945d3e; stroke:none;" d="M38 33L38 39L47 39L47 33C46.2211 34.769 46.0876 36.0359 46 38L39 38L39 34L44 34C41.9479 33.1258 40.2528 33.0472 38 33z"/>
<path style="fill:#ab6431; stroke:none;" d="M39 35L39 38L46 38L46 33L39 35M49 33L49 38C53.0516 37.7755 55.2646 37.2349 56 33L49 33z"/>
<path style="fill:#7da9d1; stroke:none;" d="M96 33L97 34L96 33z"/>
<path style="fill:#6c9ecc; stroke:none;" d="M107 33C108.248 33.6848 108.548 33.7488 110 34C108.752 33.3152 108.452 33.2512 107 33z"/>
<path style="fill:#d8e4ea; stroke:none;" d="M110 33C111.506 33.683 112.315 33.8259 114 34C112.494 33.317 111.685 33.1741 110 33z"/>
<path style="fill:#f0f4f5; stroke:none;" d="M136 33L137 34L136 33z"/>
<path style="fill:#f1f5f3; stroke:none;" d="M140 33L141 34L140 33z"/>
<path style="fill:#75a3ce; stroke:none;" d="M141 33L142 34L141 33z"/>
<path style="fill:#e7ece7; stroke:none;" d="M146.333 33.6667C146.278 33.7222 146.222 34.7778 146.667 34.3333C146.722 34.2778 146.778 33.2222 146.333 33.6667z"/>
<path style="fill:#eff3e7; stroke:none;" d="M154 33L155 34L154 33z"/>
<path style="fill:#91b6d5; stroke:none;" d="M155 33L156 34L155 33z"/>
<path style="fill:#80abd3; stroke:none;" d="M163 33L163 38C163.83 35.9695 163.83 35.0305 163 33z"/>
<path style="fill:#d1dbce; stroke:none;" d="M164 33L164 38C164.83 35.9695 164.83 35.0305 164 33z"/>
<path style="fill:#8fa476; stroke:none;" d="M165 33L164 41C165.825 38.328 166.232 36.0226 165 33z"/>
<path style="fill:#b8d1e4; stroke:none;" d="M169 33L169 35C170.635 34.4549 170.455 34.6352 171 33L169 33z"/>
<path style="fill:#80abd3; stroke:none;" d="M176 33L177 34L176 33z"/>
<path style="fill:#f6f8f8; stroke:none;" d="M184 33L185 34L184 33z"/>
<path style="fill:#76a5cf; stroke:none;" d="M185 33L186 34L185 33z"/>
<path style="fill:#cbd5c2; stroke:none;" d="M190 33C190.684 34.58 190.805 34.7772 192 36C191.316 34.42 191.195 34.2228 190 33z"/>
<path style="fill:#dee9ef; stroke:none;" d="M192 33L192 35C193.635 34.455 193.455 34.6351 194 33L192 33z"/>
<path style="fill:#70a0cd; stroke:none;" d="M194 33L195 34L194 33z"/>
<path style="fill:#b9cfe1; stroke:none;" d="M200.333 33.6667C200.278 33.7222 200.222 34.7778 200.667 34.3333C200.722 34.2778 200.778 33.2222 200.333 33.6667z"/>
<path style="fill:#81acd2; stroke:none;" d="M211 33L212 34L211 33z"/>
<path style="fill:#f7f9f7; stroke:none;" d="M212 33L211 35L213 35C213 33.1468 213.3 33.6499 212 33z"/>
<path style="fill:#76a5cf; stroke:none;" d="M213.333 33.6667C213.278 33.7222 213.222 34.7778 213.667 34.3333C213.722 34.2778 213.778 33.2222 213.333 33.6667z"/>
<path style="fill:#eff3e7; stroke:none;" d="M225 33L226 34L225 33z"/>
<path style="fill:#91b6d5; stroke:none;" d="M226 33L227 34L226 33z"/>
<path style="fill:#80abd3; stroke:none;" d="M234 33L234 38C234.83 35.9695 234.83 35.0305 234 33z"/>
<path style="fill:#d1dbce; stroke:none;" d="M235 33L235 38C235.83 35.9695 235.83 35.0305 235 33z"/>
<path style="fill:#8fa476; stroke:none;" d="M236 33L235 41C238.297 38.8544 238.122 36.125 236 33z"/>
<path style="fill:#919882; stroke:none;" d="M28 37L32 35C29.5878 33.6452 28.5676 34.3511 28 37z"/>
<path style="fill:#d25e3e; stroke:none;" d="M32 34C33.5061 34.683 34.3148 34.8259 36 35C34.494 34.317 33.6852 34.1741 32 34z"/>
<path style="fill:#fb6632; stroke:none;" d="M39 34C40.506 34.683 41.3148 34.8259 43 35C41.494 34.317 40.6852 34.1741 39 34z"/>
<path style="fill:#d5e3eb; stroke:none;" d="M96 34C96.5977 35.1954 96.4661 34.9774 98 36C96.8048 37.2228 96.6836 37.42 96 39C97.8398 37.2827 98.3486 36.4344 99 34L96 34z"/>
<path style="fill:#a1c0da; stroke:none;" d="M99.3333 34.6667C99.2778 34.7222 99.2222 35.7778 99.6667 35.3333C99.7222 35.2778 99.7778 34.2222 99.3333 34.6667z"/>
<path style="fill:#9cbddb; stroke:none;" d="M114 34L115 35L114 34z"/>
<path style="fill:#f1f5f1; stroke:none;" d="M115 34C116.248 34.6848 116.548 34.7488 118 35C116.752 34.3152 116.452 34.2512 115 34z"/>
<path style="fill:#f1f5f4; stroke:none;" d="M128 34L129 35L128 34z"/>
<path style="fill:#d9e1d9; stroke:none;" d="M134 37C135.457 35.8966 135.897 35.4566 137 34C134.876 34.8993 134.899 34.8764 134 37z"/>
<path style="fill:#f1f5f6; stroke:none;" d="M139 34L140 35L139 34z"/>
<path style="fill:#7daad1; stroke:none;" d="M145 34L146 35L145 34z"/>
<path style="fill:#d4e2ec; stroke:none;" d="M149 40C151.507 38.2048 153.205 36.5075 155 34C151.896 35.4821 150.482 36.8959 149 40z"/>
<path style="fill:#ffffff; stroke:none;" d="M157.333 34.6667C157.278 34.7222 157.222 35.7778 157.667 35.3333C157.722 35.2778 157.778 34.2222 157.333 34.6667z"/>
<path style="fill:#eaf1f4; stroke:none;" d="M168.333 34.6667C168.278 34.7222 168.222 35.7778 168.667 35.3333C168.722 35.2777 168.778 34.2222 168.333 34.6667z"/>
<path style="fill:#dde5dd; stroke:none;" d="M176.333 34.6667C176.278 34.7222 176.222 35.7778 176.667 35.3333C176.722 35.2778 176.778 34.2222 176.333 34.6667z"/>
<path style="fill:#f3f6f4; stroke:none;" d="M183 34L184 35L183 34z"/>
<path style="fill:#6c9ecc; stroke:none;" d="M184 34L185 35L184 34z"/>
<path style="fill:#f2f5ee; stroke:none;" d="M204 34L205 35L204 34z"/>
<path style="fill:#a7c4de; stroke:none;" d="M205 34L206 35L205 34z"/>
<path style="fill:#c8d3c0; stroke:none;" d="M207 38C210.07 37.8986 210.987 37.3247 213 35C209.93 35.1014 209.013 35.6752 207 38z"/>
<path style="fill:#d9e1d9; stroke:none;" d="M217.333 34.6667C217.278 34.7222 217.222 35.7778 217.667 35.3333C217.722 35.2777 217.778 34.2222 217.333 34.6667z"/>
<path style="fill:#d4e2ec; stroke:none;" d="M221 39C223.136 37.4511 224.451 36.1357 226 34C223.313 35.3241 222.324 36.3134 221 39z"/>
<path style="fill:#ffffff; stroke:none;" d="M228.333 34.6667C228.278 34.7222 228.222 35.7778 228.667 35.3333C228.722 35.2777 228.778 34.2222 228.333 34.6667z"/>
<path style="fill:#ebf582; stroke:none;" d="M16 35L16 43L26 43L26 35L16 35z"/>
<path style="fill:#f7ffaa; stroke:none;" d="M29 35L30 40C30.7789 38.231 30.9124 36.9641 31 35L29 35z"/>
<path style="fill:#dbce79; stroke:none;" d="M31 35L31 40C31.8299 37.9695 31.8299 37.0305 31 35z"/>
<path style="fill:#aa6432; stroke:none;" d="M32 35L32 40L36 40L36 35L32 35z"/>
<path style="fill:#ced8ca; stroke:none;" d="M102 39L107 36C104.184 35.3894 103.325 36.5562 102 39z"/>
<path style="fill:#73a2ce; stroke:none;" d="M107.667 35.3333C107.222 35.7778 108.278 35.7222 108.333 35.6667C108.778 35.2222 107.722 35.2778 107.667 35.3333z"/>
<path style="fill:#a7c5de; stroke:none;" d="M117 35L118 36L117 35z"/>
<path style="fill:#ecf0e3; stroke:none;" d="M118 35C119.33 36.7525 120.247 37.6697 122 39C120.846 36.7511 120.249 36.1536 118 35z"/>
<path style="fill:#f0f4ef; stroke:none;" d="M127 35L128 36L127 35z"/>
<path style="fill:#71a1cd; stroke:none;" d="M128 35L129 36L128 35z"/>
<path style="fill:#a1b28b; stroke:none;" d="M131 41C134.166 39.5202 135.951 37.8316 138 35C134.834 36.4798 133.049 38.1684 131 41z"/>
<path style="fill:#edf2f4; stroke:none;" d="M138 35L139 36L138 35z"/>
<path style="fill:#dfe6df; stroke:none;" d="M145 35C144.014 36.4785 144 36.2032 144 38C145.289 36.5574 145.401 36.7662 145 35z"/>
<path style="fill:#d8e0d4; stroke:none;" d="M156 35C153.984 37.3586 152.812 39.0237 152 42C153.776 40.5532 156.452 35.891 157 40C157.791 37.6927 157.475 36.9352 156 35z"/>
<path style="fill:#7da9d1; stroke:none;" d="M158 35L158 41C158.951 38.7147 158.951 37.2853 158 35z"/>
<path style="fill:#87b0d4; stroke:none;" d="M175 35L176 36L175 35z"/>
<path style="fill:#c8dae7; stroke:none;" d="M182 35C181.014 36.4785 181 36.2032 181 38C182.289 36.5574 182.401 36.7663 182 35z"/>
<path style="fill:#8bb3d6; stroke:none;" d="M183 35L184 36L183 35z"/>
<path style="fill:#73a2ce; stroke:none;" d="M188 35L189 36L188 35z"/>
<path style="fill:#f9fbf9; stroke:none;" d="M184 43C187.195 40.7253 189.337 38.561 191 35C187.276 36.8203 185.494 39.1544 184 43z"/>
<path style="fill:#f5f8f9; stroke:none;" d="M200 35L201 36L200 35z"/>
<path style="fill:#dfe9ef; stroke:none;" d="M203 35C202.014 36.4785 202 36.2032 202 38C203.289 36.5574 203.401 36.7662 203 35z"/>
<path style="fill:#a7c4de; stroke:none;" d="M204 35L205 36L204 35z"/>
<path style="fill:#91b6d8; stroke:none;" d="M216 35L217 36L216 35z"/>
<path style="fill:#d8e0d4; stroke:none;" d="M227 35C224.984 37.3586 223.812 39.0237 223 42C224.776 40.5531 227.452 35.891 228 40C228.791 37.6927 228.475 36.9352 227 35z"/>
<path style="fill:#7da9d1; stroke:none;" d="M229 35L229 41C229.951 38.7147 229.951 37.2853 229 35z"/>
<path style="fill:#80897d; stroke:none;" d="M61 36C62.2483 36.6848 62.5484 36.7488 64 37C62.7516 36.3152 62.4516 36.2512 61 36z"/>
<path style="fill:#b9c6aa; stroke:none;" d="M105.667 36.3333C105.222 36.7778 106.278 36.7222 106.333 36.6667C106.778 36.2222 105.722 36.2778 105.667 36.3333z"/>
<path style="fill:#d8e1da; stroke:none;" d="M107.667 36.3333C107.222 36.7778 108.278 36.7222 108.333 36.6667C108.778 36.2222 107.722 36.2778 107.667 36.3333z"/>
<path style="fill:#f7f9fa; stroke:none;" d="M109 36C110.248 36.6848 110.548 36.7488 112 37C110.752 36.3152 110.452 36.2512 109 36z"/>
<path style="fill:#cfd9c9; stroke:none;" d="M112.333 36.6667C112.278 36.7222 112.222 37.7778 112.667 37.3333C112.722 37.2778 112.778 36.2222 112.333 36.6667z"/>
<path style="fill:#cadbe7; stroke:none;" d="M126 36L125 40C126.146 38.3595 126.393 37.924 126 36z"/>
<path style="fill:#8eb4d4; stroke:none;" d="M127 36L128 37L127 36z"/>
<path style="fill:#8db3d4; stroke:none;" d="M133 36L134 37L133 36z"/>
<path style="fill:#eef3f2; stroke:none;" d="M137 36L138 37L137 36z"/>
<path style="fill:#f6f8f7; stroke:none;" d="M167 36L168 37L167 36z"/>
<path style="fill:#edf2f3; stroke:none;" d="M175 36L176 37L175 36z"/>
<path style="fill:#d3ddd0; stroke:none;" d="M198 39C199.457 37.8966 199.897 37.4566 201 36C198.876 36.8993 198.899 36.8764 198 39z"/>
<path style="fill:#73a2ce; stroke:none;" d="M215 36L216 37L215 36z"/>
<path style="fill:#eef3f3; stroke:none;" d="M216 36L217 37L216 36z"/>
<path style="fill:#9da576; stroke:none;" d="M26.3333 37.6667C26.2778 37.7222 26.2222 38.7778 26.6667 38.3333C26.7222 38.2778 26.7778 37.2222 26.3333 37.6667z"/>
<path style="fill:#676d6c; stroke:none;" d="M28 37L28 40C28.6961 38.4463 28.6961 38.5537 28 37z"/>
<path style="fill:#695154; stroke:none;" d="M36 37L36 40C36.6961 38.4463 36.6961 38.5537 36 37z"/>
<path style="fill:#8fa476; stroke:none;" d="M102 44C107.062 39.4166 109.398 39.0527 116 40C111.127 35.7625 101.205 35.6263 102 44z"/>
<path style="fill:#dde8ee; stroke:none;" d="M113.667 37.3333C113.222 37.7778 114.278 37.7222 114.333 37.6667C114.778 37.2222 113.722 37.2778 113.667 37.3333z"/>
<path style="fill:#70a1cc; stroke:none;" d="M115 37L116 38L115 37z"/>
<path style="fill:#96b9d8; stroke:none;" d="M132 37L133 38L132 37z"/>
<path style="fill:#eaefec; stroke:none;" d="M133 37L134 38L133 37z"/>
<path style="fill:#f1f5f4; stroke:none;" d="M136 37L137 38L136 37z"/>
<path style="fill:#81abd2; stroke:none;" d="M137 37L138 38L137 37z"/>
<path style="fill:#92b6d7; stroke:none;" d="M143 37L144 38L143 37z"/>
<path style="fill:#8fa476; stroke:none;" d="M156 37C154.652 38.7677 153.878 39.9825 153 42C155.85 41.0628 156.983 39.9884 156 37z"/>
<path style="fill:#edf2f4; stroke:none;" d="M166.333 37.6667C166.278 37.7222 166.222 38.7778 166.667 38.3333C166.722 38.2778 166.778 37.2222 166.333 37.6667z"/>
<path style="fill:#9cbdda; stroke:none;" d="M167 37L168 38L167 37z"/>
<path style="fill:#ccd6c4; stroke:none;" d="M171 42C173.136 40.4511 174.451 39.1357 176 37C173.313 38.3241 172.324 39.3134 171 42z"/>
<path style="fill:#76a5cf; stroke:none;" d="M214 37L215 38L214 37z"/>
<path style="fill:#f5f8f8; stroke:none;" d="M215 37L216 38L215 37z"/>
<path style="fill:#8fa476; stroke:none;" d="M227 37C225.652 38.7677 224.878 39.9825 224 42C226.85 41.0628 227.983 39.9884 227 37z"/>
<path style="fill:#cad489; stroke:none;" d="M29.3333 38.6667C29.2778 38.7222 29.2222 39.7778 29.6667 39.3333C29.7222 39.2778 29.7778 38.2222 29.3333 38.6667z"/>
<path style="fill:#696f6f; stroke:none;" d="M60 38C61.2483 38.6848 61.5484 38.7488 63 39C61.7516 38.3152 61.4516 38.2512 60 38z"/>
<path style="fill:#9ea586; stroke:none;" d="M63 38C64.2484 38.6848 64.5484 38.7488 66 39C64.7517 38.3152 64.4516 38.2512 63 38z"/>
<path style="fill:#88b0d4; stroke:none;" d="M101 38L102 39L101 38z"/>
<path style="fill:#d2d78b; stroke:none;" d="M103 44C107.722 43.902 111.647 43.5217 115 40C109.381 38.2386 105.774 38.2475 103 44z"/>
<path style="fill:#e9efec; stroke:none;" d="M115 38L116 39L115 38z"/>
<path style="fill:#7aa7d0; stroke:none;" d="M116 38L117 39L116 38z"/>
<path style="fill:#dbe3db; stroke:none;" d="M129 44C130.949 43.0643 131.55 42.6076 133 41L131 41C132.186 39.8137 132.528 39.4162 133 38C130.15 39.5564 129.497 40.7929 129 44z"/>
<path style="fill:#eff3f3; stroke:none;" d="M135 38L136 39L135 38z"/>
<path style="fill:#8ab2d6; stroke:none;" d="M136 38L137 39L136 38z"/>
<path style="fill:#f5f8f8; stroke:none;" d="M143 38L144 39L143 38z"/>
<path style="fill:#dee6e0; stroke:none;" d="M163 38L162 42C163.303 40.3324 163.553 40.0078 163 38z"/>
<path style="fill:#d8e5ed; stroke:none;" d="M180.333 38.6667C180.278 38.7223 180.222 39.7778 180.667 39.3333C180.722 39.2778 180.778 38.2222 180.333 38.6667z"/>
<path style="fill:#73a2ce; stroke:none;" d="M181 38L182 39L181 38z"/>
<path style="fill:#8ab2d6; stroke:none;" d="M192 38L191 40C192.263 39.0286 192.392 39.3063 192 38z"/>
<path style="fill:#f3f7fa; stroke:none;" d="M193 38L194 39L193 38z"/>
<path style="fill:#9cbdda; stroke:none;" d="M197 38L198 39L197 38z"/>
<path style="fill:#cddde8; stroke:none;" d="M201.333 38.6667C201.278 38.7223 201.222 39.7778 201.667 39.3333C201.722 39.2778 201.778 38.2222 201.333 38.6667z"/>
<path style="fill:#f5f8f9; stroke:none;" d="M206 40C207.58 39.3164 207.777 39.1952 209 38C207.42 38.6836 207.223 38.8048 206 40z"/>
<path style="fill:#d6dfd5; stroke:none;" d="M212 41C213.457 39.8966 213.897 39.4566 215 38C212.876 38.8993 212.899 38.8764 212 41z"/>
<path style="fill:#e6eef1; stroke:none;" d="M220 38L215 42C217.901 42.3965 220.073 41.0306 220 38z"/>
<path style="fill:#dee6e0; stroke:none;" d="M234 38L233 42C234.303 40.3324 234.553 40.0078 234 38z"/>
<path style="fill:#ced77d; stroke:none;" d="M26 39L26 44C26.8299 41.9695 26.8299 41.0305 26 39z"/>
<path style="fill:#6e7470; stroke:none;" d="M50 39C51.769 39.7789 53.0359 39.9124 55 40C53.231 39.2211 51.9641 39.0876 50 39z"/>
<path style="fill:#99a176; stroke:none;" d="M55.6667 39.3333C55.2222 39.7778 56.2778 39.7222 56.3333 39.6667C56.7778 39.2222 55.7222 39.2778 55.6667 39.3333z"/>
<path style="fill:#bcc57b; stroke:none;" d="M57.6667 39.3333C57.2222 39.7778 58.2778 39.7222 58.3333 39.6667C58.7778 39.2222 57.7222 39.2778 57.6667 39.3333z"/>
<path style="fill:#ebf582; stroke:none;" d="M48 43L62 43L62 39C57.4538 39.5746 50.9293 39.152 48 43z"/>
<path style="fill:#b7cfe2; stroke:none;" d="M95.3333 39.6667C95.2778 39.7222 95.2222 40.7778 95.6667 40.3333C95.7222 40.2778 95.7778 39.2222 95.3333 39.6667z"/>
<path style="fill:#6c9ecc; stroke:none;" d="M96 39L97 40L96 39z"/>
<path style="fill:#f0f4f5; stroke:none;" d="M101 39L102 40L101 39z"/>
<path style="fill:#c1d6e5; stroke:none;" d="M116 39C115.043 40.5166 114.613 41.3386 114 43C115.63 41.4852 116.163 41.1447 116 39z"/>
<path style="fill:#699ccb; stroke:none;" d="M121 39L121 42C121.696 40.4463 121.696 40.5537 121 39z"/>
<path style="fill:#dae3dc; stroke:none;" d="M122 39L122 42C122.696 40.4463 122.696 40.5537 122 39z"/>
<path style="fill:#abbb98; stroke:none;" d="M123 39C122.806 40.8566 122.79 42.1533 123 44C123.83 41.9695 123.83 41.0305 123 39z"/>
<path style="fill:#f5f8f7; stroke:none;" d="M124 39L124 42C124.696 40.4463 124.696 40.5537 124 39z"/>
<path style="fill:#f0f4f5; stroke:none;" d="M134 39L135 40L134 39z"/>
<path style="fill:#70a0cd; stroke:none;" d="M135 39L136 40L135 39z"/>
<path style="fill:#e2e9e4; stroke:none;" d="M142.333 39.6667C142.278 39.7222 142.222 40.7778 142.667 40.3333C142.722 40.2778 142.778 39.2222 142.333 39.6667z"/>
<path style="fill:#bdc9ae; stroke:none;" d="M143 39L144 40L143 39z"/>
<path style="fill:#e5e8be; stroke:none;" d="M146 42C148.124 41.1007 148.101 41.1236 149 39C146.876 39.8993 146.899 39.8764 146 42z"/>
<path style="fill:#f3f6f6; stroke:none;" d="M165 39L165 42C165.696 40.4463 165.696 40.5537 165 39z"/>
<path style="fill:#8ab2d6; stroke:none;" d="M166 39L167 40L166 39z"/>
<path style="fill:#c5d8e7; stroke:none;" d="M185 39L186 40L185 39z"/>
<path style="fill:#dae6ec; stroke:none;" d="M192 39C189.963 41.5154 189.104 42.7888 189 46C190.885 43.8 192.279 41.9121 192 39z"/>
<path style="fill:#73a2ce; stroke:none;" d="M193 39L194 40L193 39z"/>
<path style="fill:#70a0cd; stroke:none;" d="M196 39L197 40L196 39z"/>
<path style="fill:#ebf0ee; stroke:none;" d="M197 39L198 40L197 39z"/>
<path style="fill:#76a5cf; stroke:none;" d="M208 39L209 40L208 39z"/>
<path style="fill:#ced6b1; stroke:none;" d="M244 39C243.977 41.6941 244.027 44.4129 243.146 46.9992C239.345 58.1484 226.505 57 217 57L131 57C134.699 58.552 139.017 58 143 58L163 58C185.116 58 206.927 60.4632 229 58.946C238.205 58.3133 251.656 49.1058 244 39z"/>
<path style="fill:#959f86; stroke:none;" d="M29.6667 40.3333C29.2222 40.7778 30.2778 40.7222 30.3333 40.6667C30.7778 40.2222 29.7222 40.2778 29.6667 40.3333z"/>
<path style="fill:#7e857d; stroke:none;" d="M45 40C46.2484 40.6848 46.5484 40.7488 48 41C46.7516 40.3152 46.4516 40.2512 45 40z"/>
<path style="fill:#a8b177; stroke:none;" d="M48 40C49.2484 40.6848 49.5484 40.7488 51 41C49.7516 40.3152 49.4516 40.2512 48 40z"/>
<path style="fill:#f4f7f8; stroke:none;" d="M94 40C93.3521 42.7092 93.0583 45.2155 93 48C94.2783 45.3387 94.8706 42.8345 94 40z"/>
<path style="fill:#c0cbb3; stroke:none;" d="M100.667 40.3333C100.222 40.7778 101.278 40.7222 101.333 40.6667C101.778 40.2222 100.722 40.2778 100.667 40.3333z"/>
<path style="fill:#eff4f6; stroke:none;" d="M133 40L134 41L133 40z"/>
<path style="fill:#b2cce2; stroke:none;" d="M137 40L136 42L138 42C138 40.1468 138.3 40.6499 137 40z"/>
<path style="fill:#7da9d1; stroke:none;" d="M141 40L142 41L141 40z"/>
<path style="fill:#ebf1f5; stroke:none;" d="M151.333 40.6667C151.278 40.7222 151.222 41.7778 151.667 41.3333C151.722 41.2778 151.778 40.2222 151.333 40.6667z"/>
<path style="fill:#f4f7f8; stroke:none;" d="M157.333 40.6667C157.278 40.7222 157.222 41.7778 157.667 41.3333C157.722 41.2778 157.778 40.2222 157.333 40.6667z"/>
<path style="fill:#e2ecf0; stroke:none;" d="M179 40L178 42L180 42C180 40.1468 180.3 40.6498 179 40z"/>
<path style="fill:#84aed3; stroke:none;" d="M184 40L185 41L184 40z"/>
<path style="fill:#87b0d4; stroke:none;" d="M190 40L191 41L190 40z"/>
<path style="fill:#eff4f5; stroke:none;" d="M196 40L197 41L196 40z"/>
<path style="fill:#f9fbfb; stroke:none;" d="M200.333 40.6667C200.278 40.7222 200.222 41.7778 200.667 41.3333C200.722 41.2778 200.778 40.2222 200.333 40.6667z"/>
<path style="fill:#76a5cf; stroke:none;" d="M201 40L202 41L201 40z"/>
<path style="fill:#8eb4d7; stroke:none;" d="M206 40L207 41L206 40z"/>
<path style="fill:#4c88c0; stroke:none;" d="M207 42L210 41C208.222 40.0446 207.979 40.2337 207 42z"/>
<path style="fill:#c7d2bd; stroke:none;" d="M210.333 40.6667C210.278 40.7222 210.222 41.7778 210.667 41.3333C210.722 41.2778 210.778 40.2222 210.333 40.6667z"/>
<path style="fill:#eff3f2; stroke:none;" d="M211 40L212 41L211 40z"/>
<path style="fill:#ebf1f5; stroke:none;" d="M222.333 40.6667C222.278 40.7222 222.222 41.7778 222.667 41.3333C222.722 41.2778 222.778 40.2222 222.333 40.6667z"/>
<path style="fill:#f4f7f8; stroke:none;" d="M228.333 40.6667C228.278 40.7222 228.222 41.7778 228.667 41.3333C228.722 41.2778 228.778 40.2222 228.333 40.6667z"/>
<path style="fill:#808772; stroke:none;" d="M35 41C36.769 41.7789 38.0359 41.9124 40 42C38.231 41.2211 36.9641 41.0876 35 41z"/>
<path style="fill:#a8b078; stroke:none;" d="M40.6667 41.3333C40.2222 41.7778 41.2778 41.7222 41.3333 41.6667C41.7778 41.2222 40.7222 41.2778 40.6667 41.3333z"/>
<path style="fill:#c5cd7c; stroke:none;" d="M42 41C43.2484 41.6848 43.5484 41.7488 45 42C43.7516 41.3152 43.4516 41.2512 42 41z"/>
<path style="fill:#f2f6f7; stroke:none;" d="M100.333 41.6667C100.278 41.7222 100.222 42.7778 100.667 42.3333C100.722 42.2778 100.778 41.2222 100.333 41.6667z"/>
<path style="fill:#8ab2d6; stroke:none;" d="M128 41L128 44C128.696 42.4463 128.696 42.5537 128 41z"/>
<path style="fill:#91a578; stroke:none;" d="M130 41L131 42L130 41z"/>
<path style="fill:#dbe4de; stroke:none;" d="M141.333 41.6667C141.278 41.7222 141.222 42.7778 141.667 42.3333C141.722 42.2778 141.778 41.2222 141.333 41.6667z"/>
<path style="fill:#d6db9b; stroke:none;" d="M156 41L157 42L156 41z"/>
<path style="fill:#9cbdda; stroke:none;" d="M161 41L162 42L161 41z"/>
<path style="fill:#adbc9b; stroke:none;" d="M163.667 41.3333C163.222 41.7778 164.278 41.7222 164.333 41.6667C164.778 41.2222 163.722 41.2778 163.667 41.3333z"/>
<path style="fill:#93b7d7; stroke:none;" d="M170 41L171 42L170 41z"/>
<path style="fill:#73a2ce; stroke:none;" d="M189 41L190 42L189 41z"/>
<path style="fill:#ebf0ef; stroke:none;" d="M195.333 41.6667C195.278 41.7222 195.222 42.7778 195.667 42.3333C195.722 42.2778 195.778 41.2222 195.333 41.6667z"/>
<path style="fill:#bdcab1; stroke:none;" d="M196 41L197 42L196 41z"/>
<path style="fill:#c4d0ba; stroke:none;" d="M208.333 41.6667C208.278 41.7222 208.222 42.7778 208.667 42.3333C208.722 42.2778 208.778 41.2222 208.333 41.6667z"/>
<path style="fill:#f7fafa; stroke:none;" d="M209 41L210 42L209 41z"/>
<path style="fill:#d6db9b; stroke:none;" d="M227 41L228 42L227 41z"/>
<path style="fill:#9cbdda; stroke:none;" d="M232 41L233 42L232 41z"/>
<path style="fill:#a9b996; stroke:none;" d="M234.667 41.3333C234.222 41.7778 235.278 41.7222 235.333 41.6667C235.778 41.2222 234.722 41.2778 234.667 41.3333z"/>
<path style="fill:#e8eff3; stroke:none;" d="M236 41L237 44C237.685 42.7516 237.749 42.4516 238 41L236 41z"/>
<path style="fill:#848b7f; stroke:none;" d="M29 42C30.2484 42.6848 30.5484 42.7488 32 43C30.7516 42.3152 30.4516 42.2512 29 42z"/>
<path style="fill:#a8b075; stroke:none;" d="M32 42C33.2484 42.6848 33.5484 42.7488 35 43C33.7516 42.3152 33.4516 42.2512 32 42z"/>
<path style="fill:#f2fc80; stroke:none;" d="M35 42C38.1633 43.3274 41.5856 42.9996 45 43C41.8367 41.6726 38.4144 42.0004 35 42z"/>
<path style="fill:#f6f8f8; stroke:none;" d="M113 42L114 43L113 42z"/>
<path style="fill:#e9efed; stroke:none;" d="M121.333 42.6667C121.278 42.7222 121.222 43.7778 121.667 43.3333C121.722 43.2778 121.778 42.2222 121.333 42.6667z"/>
<path style="fill:#d3e1e9; stroke:none;" d="M124.333 42.6667C124.278 42.7222 124.222 43.7778 124.667 43.3333C124.722 43.2778 124.778 42.2222 124.333 42.6667z"/>
<path style="fill:#f9fbfc; stroke:none;" d="M136 42L137 43L136 42z"/>
<path style="fill:#d4e2ec; stroke:none;" d="M143 43C144.659 43.4065 145.242 43.3086 147 43C145.191 42.4257 144.931 42.5347 143 43z"/>
<path style="fill:#73a2ce; stroke:none;" d="M152 42L153 43L152 42z"/>
<path style="fill:#f5f8f8; stroke:none;" d="M153 42L154 43L153 42z"/>
<path style="fill:#d6da95; stroke:none;" d="M154.667 42.3333C154.222 42.7778 155.278 42.7223 155.333 42.6667C155.778 42.2222 154.722 42.2778 154.667 42.3333z"/>
<path style="fill:#ecf1e7; stroke:none;" d="M156 42L157 43L156 42z"/>
<path style="fill:#94b8d8; stroke:none;" d="M157 42L158 43L157 42z"/>
<path style="fill:#7aa7d0; stroke:none;" d="M160 42L161 43L160 42z"/>
<path style="fill:#cad4bf; stroke:none;" d="M161 42L161 44L163 44C162.455 42.3648 162.635 42.5451 161 42z"/>
<path style="fill:#a1b28b; stroke:none;" d="M162 42L163 43L162 42z"/>
<path style="fill:#a9c6de; stroke:none;" d="M163.333 42.6667C163.278 42.7222 163.222 43.7778 163.667 43.3333C163.722 43.2778 163.778 42.2222 163.333 42.6667z"/>
<path style="fill:#ecf2f4; stroke:none;" d="M164 42L165 43L164 42z"/>
<path style="fill:#6c9ecc; stroke:none;" d="M165 42L166 43L165 42z"/>
<path style="fill:#eaedd4; stroke:none;" d="M170 42C170.841 45.9247 173.708 44.8853 177 44L170 42z"/>
<path style="fill:#bbd1e3; stroke:none;" d="M177.667 42.3333C177.222 42.7778 178.278 42.7222 178.333 42.6667C178.778 42.2222 177.722 42.2778 177.667 42.3333z"/>
<path style="fill:#76a5cf; stroke:none;" d="M191 42L192 43L191 42z"/>
<path style="fill:#699ccb; stroke:none;" d="M194 42L195 43L194 42z"/>
<path style="fill:#b2cce1; stroke:none;" d="M198 42L197 44L199 44C199 42.1468 199.3 42.6498 198 42z"/>
<path style="fill:#f3f7f7; stroke:none;" d="M199 42L200 43L199 42z"/>
<path style="fill:#79a7d0; stroke:none;" d="M200 42L201 43L200 42z"/>
<path style="fill:#e9efec; stroke:none;" d="M206 42C206.307 44.1228 206.382 44.686 208 46L208 42L206 42z"/>
<path style="fill:#73a2ce; stroke:none;" d="M223 42L224 43L223 42z"/>
<path style="fill:#f5f8f8; stroke:none;" d="M224 42L225 43L224 42z"/>
<path style="fill:#d6da95; stroke:none;" d="M225.667 42.3333C225.222 42.7778 226.278 42.7222 226.333 42.6667C226.778 42.2222 225.722 42.2778 225.667 42.3333z"/>
<path style="fill:#ecf1e7; stroke:none;" d="M227 42L228 43L227 42z"/>
<path style="fill:#94b8d8; stroke:none;" d="M228 42L229 43L228 42z"/>
<path style="fill:#7aa7d0; stroke:none;" d="M231 42L232 43L231 42z"/>
<path style="fill:#cad4bf; stroke:none;" d="M232 42L232 44L234 44C233.455 42.3648 233.635 42.5451 232 42z"/>
<path style="fill:#a1b28b; stroke:none;" d="M233 42L234 43L233 42z"/>
<path style="fill:#a9c6de; stroke:none;" d="M234.333 42.6667C234.278 42.7222 234.222 43.7778 234.667 43.3333C234.722 43.2778 234.778 42.2222 234.333 42.6667z"/>
<path style="fill:#ecf2f4; stroke:none;" d="M235 42L236 43L235 42z"/>
<path style="fill:#76a5cf; stroke:none;" d="M236 42L237 43L236 42z"/>
<path style="fill:#9cbdda; stroke:none;" d="M100 43L101 44L100 43z"/>
<path style="fill:#e0e7e2; stroke:none;" d="M101 43L102 44L101 43z"/>
<path style="fill:#e9eee4; stroke:none;" d="M102 44C105.611 45.512 109.229 44.7 113 44C109.569 42.7694 105.651 43.9246 102 44z"/>
<path style="fill:#699ccb; stroke:none;" d="M120 43L121 44L120 43z"/>
<path style="fill:#8fa476; stroke:none;" d="M122 43C115.733 50.1112 107.317 52.9842 98 52C103.247 55.9749 112.548 53.9666 117.985 50.9537C121.333 49.0981 124.226 46.6033 122 43z"/>
<path style="fill:#e2ebf1; stroke:none;" d="M135 43L134 46C135.766 45.0214 135.955 44.7782 135 43z"/>
<path style="fill:#adc8df; stroke:none;" d="M136 43L137 44L136 43z"/>
<path style="fill:#c5d0b9; stroke:none;" d="M140 43C141.248 43.6848 141.548 43.7488 143 44C141.752 43.3152 141.452 43.2512 140 43z"/>
<path style="fill:#6c9ecc; stroke:none;" d="M153 43L154 44L153 43z"/>
<path style="fill:#f0f4f0; stroke:none;" d="M154.667 43.3333C154.222 43.7778 155.278 43.7222 155.333 43.6667C155.778 43.2222 154.722 43.2778 154.667 43.3333z"/>
<path style="fill:#98bad8; stroke:none;" d="M156 43L157 44L156 43z"/>
<path style="fill:#9dbdd6; stroke:none;" d="M159 43L160 44L159 43z"/>
<path style="fill:#eaf0f3; stroke:none;" d="M157 45C159.234 45.6513 160.074 45.3182 162 44C159.752 43.9545 159.104 44.1237 157 45z"/>
<path style="fill:#6c9ecc; stroke:none;" d="M177 43L178 44L177 43z"/>
<path style="fill:#98bad6; stroke:none;" d="M194.333 43.6667C194.278 43.7222 194.222 44.7778 194.667 44.3333C194.722 44.2778 194.778 43.2222 194.333 43.6667z"/>
<path style="fill:#b2c1a1; stroke:none;" d="M195.667 43.3333C195.222 43.7778 196.278 43.7222 196.333 43.6667C196.778 43.2222 195.722 43.2778 195.667 43.3333z"/>
<path style="fill:#e5eef2; stroke:none;" d="M212 45C213.58 44.3164 213.777 44.1952 215 43C213.42 43.6836 213.223 43.8048 212 45z"/>
<path style="fill:#a5c4dd; stroke:none;" d="M215 43L216 44L215 43z"/>
<path style="fill:#bcd3e6; stroke:none;" d="M218 43L219 44L218 43z"/>
<path style="fill:#6c9ecc; stroke:none;" d="M224 43L225 44L224 43z"/>
<path style="fill:#f0f4f0; stroke:none;" d="M225.667 43.3333C225.222 43.7778 226.278 43.7222 226.333 43.6667C226.778 43.2222 225.722 43.2778 225.667 43.3333z"/>
<path style="fill:#98bad8; stroke:none;" d="M227 43L228 44L227 43z"/>
<path style="fill:#9dbdd6; stroke:none;" d="M230 43L231 44L230 43z"/>
<path style="fill:#eaf0f3; stroke:none;" d="M228 45C230.234 45.6513 231.074 45.3182 233 44C230.752 43.9545 230.104 44.1237 228 45z"/>
<path style="fill:#8fa476; stroke:none;" d="M239 43C234.524 47.1102 230.105 50.8949 224 52C229.353 55.4952 241.23 50.0509 239 43z"/>
<path style="fill:#abb57d; stroke:none;" d="M28.3333 44.6667C28.2778 44.7222 28.2222 45.7778 28.6667 45.3333C28.7222 45.2778 28.7778 44.2222 28.3333 44.6667z"/>
<path style="fill:#87b0d4; stroke:none;" d="M101 44L102 45L101 44z"/>
<path style="fill:#83add4; stroke:none;" d="M110 44L111 45L110 44z"/>
<path style="fill:#eff4f6; stroke:none;" d="M120 44L121 45L120 44z"/>
<path style="fill:#f8faf9; stroke:none;" d="M124 44L124 47C124.696 45.4463 124.696 45.5537 124 44z"/>
<path style="fill:#a3c2dc; stroke:none;" d="M134 44L135 45L134 44z"/>
<path style="fill:#73a2ce; stroke:none;" d="M140 44L141 45L140 44z"/>
<path style="fill:#c2d6e5; stroke:none;" d="M141.667 44.3333C141.222 44.7778 142.278 44.7222 142.333 44.6667C142.778 44.2222 141.722 44.2778 141.667 44.3333z"/>
<path style="fill:#6c9ecc; stroke:none;" d="M143 44L144 45L143 44z"/>
<path style="fill:#9cbdda; stroke:none;" d="M146 44L147 45L146 44z"/>
<path style="fill:#dde5dd; stroke:none;" d="M147 44C145.39 45.3275 144.299 46.383 143 48C145.253 47.1679 147.441 46.5395 147 44z"/>
<path style="fill:#74a3cd; stroke:none;" d="M154.667 44.3333C154.222 44.7778 155.278 44.7222 155.333 44.6667C155.778 44.2222 154.722 44.2778 154.667 44.3333z"/>
<path style="fill:#6e9fcb; stroke:none;" d="M157 44L158 45L157 44z"/>
<path style="fill:#83add4; stroke:none;" d="M165 44L166 45L165 44z"/>
<path style="fill:#a5c4dd; stroke:none;" d="M175 44L176 45L175 44z"/>
<path style="fill:#84add3; stroke:none;" d="M179 44L180 45L179 44z"/>
<path style="fill:#c6d2be; stroke:none;" d="M187.333 44.6667C187.278 44.7222 187.222 45.7778 187.667 45.3333C187.722 45.2778 187.778 44.2222 187.333 44.6667z"/>
<path style="fill:#afbe9d; stroke:none;" d="M188.333 44.6667C188.278 44.7222 188.222 45.7778 188.667 45.3333C188.722 45.2778 188.778 44.2222 188.333 44.6667z"/>
<path style="fill:#e0e9ef; stroke:none;" d="M195.667 44.3333C195.222 44.7778 196.278 44.7222 196.333 44.6667C196.778 44.2222 195.722 44.2778 195.667 44.3333z"/>
<path style="fill:#d5db9e; stroke:none;" d="M211 44L212 45L211 44z"/>
<path style="fill:#f7f9fa; stroke:none;" d="M217 44C217.545 45.6352 217.365 45.4549 219 46L219 44L217 44z"/>
<path style="fill:#74a3cd; stroke:none;" d="M225.667 44.3333C225.222 44.7778 226.278 44.7222 226.333 44.6667C226.778 44.2222 225.722 44.2778 225.667 44.3333z"/>
<path style="fill:#6e9fcb; stroke:none;" d="M228 44L229 45L228 44z"/>
<path style="fill:#c8d3bf; stroke:none;" d="M235 47C236.457 45.8966 236.897 45.4566 238 44C235.876 44.8993 235.899 44.8764 235 47z"/>
<path style="fill:#edf791; stroke:none;" d="M15 45L15 54L29 54C25.0413 52.3389 20.2634 53 16 53L16 46L26 46C22.5676 44.5597 18.7002 45 15 45z"/>
<path style="fill:#ecf88a; stroke:none;" d="M32 45C35.9587 46.6611 40.7366 46 45 46C41.0413 44.3389 36.2634 45 32 45M48 45C50.4577 46.0313 59.6824 45.0231 59.4275 48.8843C59.3386 50.2297 57.6825 51.8888 57 53L62 53L62 45L48 45z"/>
<path style="fill:#6298c8; stroke:none;" d="M103 45C104.506 45.683 105.315 45.8259 107 46C105.494 45.317 104.685 45.1741 103 45z"/>
<path style="fill:#ecf2f4; stroke:none;" d="M119 45L120 46L119 45z"/>
<path style="fill:#bcc9ae; stroke:none;" d="M120 45L121 46L120 45z"/>
<path style="fill:#73a2ce; stroke:none;" d="M133 45L134 46L133 45z"/>
<path style="fill:#b1cbe3; stroke:none;" d="M156 45L157 46L156 45z"/>
<path style="fill:#70a0cd; stroke:none;" d="M160 45L161 46L160 45z"/>
<path style="fill:#ffffff; stroke:none;" d="M164.667 45.3333C164.222 45.7778 165.278 45.7222 165.333 45.6667C165.778 45.2222 164.722 45.2778 164.667 45.3333z"/>
<path style="fill:#83add4; stroke:none;" d="M172.667 45.3333C172.222 45.7778 173.278 45.7222 173.333 45.6667C173.778 45.2222 172.722 45.2778 172.667 45.3333z"/>
<path style="fill:#f2f6f7; stroke:none;" d="M178 45L179 48C179.685 46.7516 179.749 46.4516 180 45L178 45z"/>
<path style="fill:#dde5dd; stroke:none;" d="M186 45C185.014 46.4785 185 46.2032 185 48C186.289 46.5574 186.401 46.7663 186 45z"/>
<path style="fill:#d7e0d4; stroke:none;" d="M199 45C197.652 46.7677 196.878 47.9825 196 50C198.015 48.3557 199.098 47.5872 199 45z"/>
<path style="fill:#f1f5f4; stroke:none;" d="M200 45L200 48C200.696 46.4463 200.696 46.5537 200 45z"/>
<path style="fill:#bfd4e3; stroke:none;" d="M208 45L208 47L210 47C209.455 45.3648 209.635 45.545 208 45z"/>
<path style="fill:#ebf0e4; stroke:none;" d="M209 45C210.248 45.6848 210.548 45.7488 212 46C210.752 45.3152 210.452 45.2512 209 45z"/>
<path style="fill:#8bb3d6; stroke:none;" d="M212 45L213 46L212 45z"/>
<path style="fill:#e2ebf1; stroke:none;" d="M216 45C214.814 46.1863 214.472 46.5838 214 48C215.548 46.7383 215.808 46.8061 216 45z"/>
<path style="fill:#bfcbb1; stroke:none;" d="M217 45L218 46L217 45z"/>
<path style="fill:#b1cbe3; stroke:none;" d="M227 45L228 46L227 45z"/>
<path style="fill:#70a0cd; stroke:none;" d="M231 45L232 46L231 45z"/>
<path style="fill:#ebf582; stroke:none;" d="M16 46L16 53C20.9125 53 28.0412 54.564 31 50L25 50L25 46L16 46z"/>
<path style="fill:#c0925f; stroke:none;" d="M25 46L26 47L25 46z"/>
<path style="fill:#a46453; stroke:none;" d="M26.6667 46.3333C26.2222 46.7778 27.2778 46.7222 27.3333 46.6667C27.7778 46.2222 26.7222 46.2778 26.6667 46.3333z"/>
<path style="fill:#f6bd68; stroke:none;" d="M28 46C29.2483 46.6848 29.5484 46.7488 31 47C29.7516 46.3152 29.4516 46.2512 28 46z"/>
<path style="fill:#fa742e; stroke:none;" d="M31 46C32.2483 46.6848 32.5484 46.7488 34 47C32.7516 46.3152 32.4516 46.2512 31 46z"/>
<path style="fill:#f3b55d; stroke:none;" d="M34 46C39.4692 48.295 47.0987 47 53 47C47.5308 44.705 39.9013 46 34 46z"/>
<path style="fill:#fb732f; stroke:none;" d="M53 46C54.2484 46.6848 54.5484 46.7488 56 47C54.7516 46.3152 54.4516 46.2512 53 46z"/>
<path style="fill:#f3b35c; stroke:none;" d="M56 46C57.506 46.683 58.3148 46.8259 60 47C58.494 46.317 57.6852 46.1741 56 46z"/>
<path style="fill:#76a5cf; stroke:none;" d="M117 46L118 47L117 46z"/>
<path style="fill:#f0f4f5; stroke:none;" d="M118 46L119 47L118 46z"/>
<path style="fill:#699ccb; stroke:none;" d="M125 46L126 47L125 46z"/>
<path style="fill:#d2ddd4; stroke:none;" d="M133 46C134.497 50.2589 136.47 52.0066 141 51C138.173 49.6668 136.795 49.1251 136 46L133 46z"/>
<path style="fill:#8fa476; stroke:none;" d="M146 46L137 53C141.154 53.7768 148.906 51.233 146 46z"/>
<path style="fill:#b1cae0; stroke:none;" d="M147.667 46.3333C147.222 46.7778 148.278 46.7222 148.333 46.6667C148.778 46.2222 147.722 46.2778 147.667 46.3333z"/>
<path style="fill:#e1e9e4; stroke:none;" d="M163 46C164.248 46.6848 164.548 46.7488 166 47C164.752 46.3152 164.452 46.2512 163 46z"/>
<path style="fill:#d7e0d4; stroke:none;" d="M175 50C176.753 48.6697 177.67 47.7526 179 46C176.751 47.1536 176.154 47.7511 175 50z"/>
<path style="fill:#8fa476; stroke:none;" d="M187 46L182 51C185.688 52.1726 188.173 49.6882 187 46z"/>
<path style="fill:#d2ddd1; stroke:none;" d="M188 46C188.176 47.8781 188.438 49.1995 189 51C189.473 48.8571 189.133 47.8987 188 46z"/>
<path style="fill:#79a7d0; stroke:none;" d="M189 46L189 49C189.696 47.4463 189.696 47.5537 189 46z"/>
<path style="fill:#bdcbb4; stroke:none;" d="M216 46L215 48C216.263 47.0287 216.392 47.3062 216 46z"/>
<path style="fill:#8fa476; stroke:none;" d="M217 46C212.914 49.4713 209.433 51.7062 204 52C208.271 55.232 220.66 52.5904 217 46z"/>
<path style="fill:#b1cae0; stroke:none;" d="M218.667 46.3333C218.222 46.7778 219.278 46.7222 219.333 46.6667C219.778 46.2222 218.722 46.2778 218.667 46.3333z"/>
<path style="fill:#ecf2f4; stroke:none;" d="M234 46L235 47L234 46z"/>
<path style="fill:#ff602f; stroke:none;" d="M25 47L25 49L31 49L31 47L25 47z"/>
<path style="fill:#ff4f18; stroke:none;" d="M31 47L31 52L34 52L34 47L31 47z"/>
<path style="fill:#ff5e2f; stroke:none;" d="M34 47L34 49L53 49L53 47L34 47z"/>
<path style="fill:#ff4f18; stroke:none;" d="M53 47L53 52L56 52L56 47L53 47z"/>
<path style="fill:#ff5e2f; stroke:none;" d="M56 47L56 49L60 49L60 47L56 47z"/>
<path style="fill:#fc7b3f; stroke:none;" d="M60 47C58.457 48.2667 57.9522 48.4892 56 49C58.1911 50.0301 61.1511 50.0535 60 47z"/>
<path style="fill:#7da9d1; stroke:none;" d="M94 47L95 48L94 47z"/>
<path style="fill:#e3eae6; stroke:none;" d="M116.667 47.3333C116.222 47.7778 117.278 47.7222 117.333 47.6667C117.778 47.2222 116.722 47.2778 116.667 47.3333z"/>
<path style="fill:#eaefdc; stroke:none;" d="M125.333 47.6667C125.278 47.7222 125.222 48.7778 125.667 48.3333C125.722 48.2778 125.778 47.2222 125.333 47.6667z"/>
<path style="fill:#e5edf2; stroke:none;" d="M132 47L133 48L132 47z"/>
<path style="fill:#76a5cf; stroke:none;" d="M135.333 47.6667C135.278 47.7222 135.222 48.7778 135.667 48.3333C135.722 48.2778 135.778 47.2222 135.333 47.6667z"/>
<path style="fill:#eff4f3; stroke:none;" d="M148 47L149 48L148 47z"/>
<path style="fill:#73a2ce; stroke:none;" d="M149 47L150 48L149 47z"/>
<path style="fill:#87b0d4; stroke:none;" d="M161 47L162 48L161 47z"/>
<path style="fill:#f3f6f7; stroke:none;" d="M162 47L163 48L162 47z"/>
<path style="fill:#8fa476; stroke:none;" d="M153 52C157.898 55.1984 162.751 52.1112 166 48C161.338 47.8209 157.64 51.16 153 52z"/>
<path style="fill:#b1cbe0; stroke:none;" d="M165.667 47.3333C165.222 47.7778 166.278 47.7222 166.333 47.6667C166.778 47.2222 165.722 47.2778 165.667 47.3333z"/>
<path style="fill:#8fa476; stroke:none;" d="M178 47C175.121 49.3598 172.573 50.9408 169 52C172.79 54.4627 180.995 52.3765 178 47z"/>
<path style="fill:#87afd5; stroke:none;" d="M180 47L181 48L180 47z"/>
<path style="fill:#70a0cd; stroke:none;" d="M184 47L185 48L184 47z"/>
<path style="fill:#8fa476; stroke:none;" d="M199 47L191 53C194.967 53.9066 201.818 52.074 199 47z"/>
<path style="fill:#7daad1; stroke:none;" d="M201 47L202 48L201 47z"/>
<path style="fill:#f1f5f4; stroke:none;" d="M219 47L220 48L219 47z"/>
<path style="fill:#73a2ce; stroke:none;" d="M220 47L221 48L220 47z"/>
<path style="fill:#91b6d8; stroke:none;" d="M232 47L233 48L232 47z"/>
<path style="fill:#f3f6f6; stroke:none;" d="M233 47L234 48L233 47z"/>
<path style="fill:#d9dfb8; stroke:none;" d="M94 48C94.6836 49.58 94.8048 49.7772 96 51C95.3164 49.42 95.1952 49.2228 94 48z"/>
<path style="fill:#becab1; stroke:none;" d="M114.333 48.6667C114.278 48.7222 114.222 49.7778 114.667 49.3333C114.722 49.2778 114.778 48.2222 114.333 48.6667z"/>
<path style="fill:#f0f4f5; stroke:none;" d="M115 48L116 49L115 48z"/>
<path style="fill:#bcc9ae; stroke:none;" d="M116 48L117 49L116 48z"/>
<path style="fill:#8cb3d5; stroke:none;" d="M126 48L127 49L126 48z"/>
<path style="fill:#ecf2f5; stroke:none;" d="M131 48L132 49L131 48z"/>
<path style="fill:#bfcbb3; stroke:none;" d="M132 48L133 49L132 48z"/>
<path style="fill:#8fa476; stroke:none;" d="M133 48L128 52C131.22 52.4731 133.775 51.6764 133 48z"/>
<path style="fill:#c6d2be; stroke:none;" d="M142 48L142 50C143.635 49.4549 143.455 49.6352 144 48L142 48z"/>
<path style="fill:#f0f4f4; stroke:none;" d="M149 48L150 49L149 48z"/>
<path style="fill:#70a0cd; stroke:none;" d="M150 48L151 49L150 48z"/>
<path style="fill:#c7d3c0; stroke:none;" d="M160 48L160 50C161.635 49.4549 161.455 49.6352 162 48L160 48z"/>
<path style="fill:#e6ebd6; stroke:none;" d="M166 48C166.899 50.1236 166.876 50.1007 169 51C167.897 49.5434 167.457 49.1034 166 48z"/>
<path style="fill:#e6ead0; stroke:none;" d="M180 48L180 50L182 50C181.455 48.3648 181.635 48.5451 180 48z"/>
<path style="fill:#f0f4f5; stroke:none;" d="M184 48L185 49L184 48z"/>
<path style="fill:#eef2e6; stroke:none;" d="M201.333 48.6667C201.278 48.7222 201.222 49.7778 201.667 49.3333C201.722 49.2778 201.778 48.2222 201.333 48.6667z"/>
<path style="fill:#ecf2f4; stroke:none;" d="M213 48L214 49L213 48z"/>
<path style="fill:#bdcab1; stroke:none;" d="M214 48L215 49L214 48z"/>
<path style="fill:#f0f4f4; stroke:none;" d="M220 48L221 49L220 48z"/>
<path style="fill:#70a0cd; stroke:none;" d="M221 48L222 49L221 48z"/>
<path style="fill:#f5f8f9; stroke:none;" d="M230 50C231.58 49.3164 231.777 49.1952 233 48C231.42 48.6836 231.223 48.8048 230 50z"/>
<path style="fill:#fc793d; stroke:none;" d="M25 49C27.0521 49.8742 28.7472 49.9528 31 50C28.9479 49.1258 27.2528 49.0472 25 49z"/>
<path style="fill:#fc793e; stroke:none;" d="M34 49C39.4692 51.295 47.0987 50 53 50C47.5308 47.705 39.9013 49 34 49z"/>
<path style="fill:#ced8ca; stroke:none;" d="M111.333 49.6667C111.278 49.7222 111.222 50.7778 111.667 50.3333C111.722 50.2778 111.778 49.2222 111.333 49.6667z"/>
<path style="fill:#e7edeb; stroke:none;" d="M112.667 49.3333C112.222 49.7778 113.278 49.7222 113.333 49.6667C113.778 49.2222 112.722 49.2778 112.667 49.3333z"/>
<path style="fill:#f1f5f2; stroke:none;" d="M126 49L127 50L126 49z"/>
<path style="fill:#cad3b3; stroke:none;" d="M127 49C127.98 50.7833 127.908 50.5943 130 51C128.861 49.9846 128.388 49.6913 127 49z"/>
<path style="fill:#b1cbe0; stroke:none;" d="M128.667 49.3333C128.222 49.7778 129.278 49.7222 129.333 49.6667C129.778 49.2222 128.722 49.2778 128.667 49.3333z"/>
<path style="fill:#eef3f3; stroke:none;" d="M130 49L131 50L130 49z"/>
<path style="fill:#8ab2d6; stroke:none;" d="M140 49L141 50L140 49z"/>
<path style="fill:#f3f6f7; stroke:none;" d="M141 49L142 50L141 49z"/>
<path style="fill:#dce4db; stroke:none;" d="M150 49C151.543 50.2667 152.048 50.4892 154 51C152.542 49.9189 151.752 49.564 150 49z"/>
<path style="fill:#cad5c5; stroke:none;" d="M158.333 49.6667C158.278 49.7222 158.222 50.7778 158.667 50.3333C158.722 50.2778 158.778 49.2222 158.333 49.6667z"/>
<path style="fill:#f5f8f9; stroke:none;" d="M159 49L160 50L159 49z"/>
<path style="fill:#79a7d0; stroke:none;" d="M173 49L174 50L173 49z"/>
<path style="fill:#edf2f4; stroke:none;" d="M174 49L175 50L174 49z"/>
<path style="fill:#c4d0bb; stroke:none;" d="M182 49L181 51L183 51C183 49.1468 183.3 49.6499 182 49z"/>
<path style="fill:#f2f6f7; stroke:none;" d="M183 49L184 50L183 49z"/>
<path style="fill:#b9c6aa; stroke:none;" d="M184 49L185 50L184 49z"/>
<path style="fill:#6c9ecc; stroke:none;" d="M194 49L195 50L194 49z"/>
<path style="fill:#ecf2f4; stroke:none;" d="M195 49L196 50L195 49z"/>
<path style="fill:#90b5d6; stroke:none;" d="M202 49L203 50L202 49z"/>
<path style="fill:#d3ddd0; stroke:none;" d="M210 51C211.58 50.3164 211.777 50.1952 213 49C211.42 49.6836 211.223 49.8048 210 51z"/>
<path style="fill:#dce4db; stroke:none;" d="M221 49C222.543 50.2667 223.048 50.4892 225 51C223.542 49.9189 222.752 49.564 221 49z"/>
<path style="fill:#cad5c5; stroke:none;" d="M229.333 49.6667C229.278 49.7222 229.222 50.7778 229.667 50.3333C229.722 50.2778 229.778 49.2222 229.333 49.6667z"/>
<path style="fill:#d5ded8; stroke:none;" d="M245 49C242.031 53.8722 238.121 55.8158 233 58C238.097 59.7625 246.562 54.9024 245 49z"/>
<path style="fill:#eedd75; stroke:none;" d="M34 52C37.694 51.1205 41.2143 51.0025 45 51C41.6123 49.5785 36.5542 49.077 34 52z"/>
<path style="fill:#f0fca7; stroke:none;" d="M45 50L45 54L37 54C41.2284 55.7743 46.6671 55.2807 51 54C49.5982 52.6492 48.8236 51.7457 48 50L45 50z"/>
<path style="fill:#eedd74; stroke:none;" d="M48 50C49.6482 50.9241 51.1749 51.4494 53 52C51.4602 50.1969 50.4025 50.168 48 50z"/>
<path style="fill:#eedd75; stroke:none;" d="M56 52L60 51C57.9535 50.2489 57.4043 50.3444 56 52z"/>
<path style="fill:#bcd1e3; stroke:none;" d="M96.6667 50.3333C96.2222 50.7778 97.2778 50.7222 97.3333 50.6667C97.7778 50.2222 96.7222 50.2778 96.6667 50.3333z"/>
<path style="fill:#7da9d1; stroke:none;" d="M108 50L109 51L108 50z"/>
<path style="fill:#f5f8f8; stroke:none;" d="M109.667 50.3333C109.222 50.7778 110.278 50.7222 110.333 50.6667C110.778 50.2222 109.722 50.2778 109.667 50.3333z"/>
<path style="fill:#8db3d4; stroke:none;" d="M137.667 50.3333C137.222 50.7778 138.278 50.7222 138.333 50.6667C138.778 50.2222 137.722 50.2778 137.667 50.3333z"/>
<path style="fill:#9abcdb; stroke:none;" d="M154 50C155.248 50.6848 155.548 50.7488 157 51C155.752 50.3152 155.452 50.2512 154 50z"/>
<path style="fill:#f5f8f9; stroke:none;" d="M157 50L158 51L157 50z"/>
<path style="fill:#6298c8; stroke:none;" d="M169 50C170.248 50.6848 170.548 50.7488 172 51C170.752 50.3152 170.452 50.2512 169 50z"/>
<path style="fill:#e2e9e4; stroke:none;" d="M172.667 50.3333C172.222 50.7778 173.278 50.7222 173.333 50.6667C173.778 50.2222 172.722 50.2778 172.667 50.3333z"/>
<path style="fill:#83add4; stroke:none;" d="M190 50L191 51L190 50z"/>
<path style="fill:#699ccb; stroke:none;" d="M192 50L193 51L192 50z"/>
<path style="fill:#e9efec; stroke:none;" d="M193.667 50.3333C193.222 50.7778 194.278 50.7222 194.333 50.6667C194.778 50.2222 193.722 50.2778 193.667 50.3333z"/>
<path style="fill:#b1cbe0; stroke:none;" d="M202 50C202.545 51.6352 202.365 51.4549 204 52L204 50L202 50z"/>
<path style="fill:#8ab2d6; stroke:none;" d="M209 50L210 51L209 50z"/>
<path style="fill:#9abcdb; stroke:none;" d="M225 50C226.248 50.6848 226.548 50.7488 228 51C226.752 50.3152 226.452 50.2512 225 50z"/>
<path style="fill:#f5f8f9; stroke:none;" d="M228 50L229 51L228 50z"/>
<path style="fill:#ebf580; stroke:none;" d="M35 51L36 55C39.0395 54.2757 41.8783 54.0262 45 54L45 51L35 51z"/>
<path style="fill:#eaf985; stroke:none;" d="M48 51L48 53L52 53L52 51L48 51z"/>
<path style="fill:#edf2f4; stroke:none;" d="M98 51C99.2484 51.6848 99.5484 51.7488 101 52C99.7517 51.3152 99.4516 51.2512 98 51z"/>
<path style="fill:#b5cde1; stroke:none;" d="M101 51C102.769 51.7789 104.036 51.9124 106 52C104.231 51.2211 102.964 51.0876 101 51z"/>
<path style="fill:#f1f5f4; stroke:none;" d="M106 51C107.248 51.6848 107.548 51.7488 109 52C107.752 51.3152 107.452 51.2512 106 51z"/>
<path style="fill:#c5d0b9; stroke:none;" d="M152 51C153.769 51.7789 155.036 51.9124 157 52C155.231 51.2211 153.964 51.0876 152 51z"/>
<path style="fill:#dde5e1; stroke:none;" d="M169 51C170.248 51.6848 170.548 51.7488 172 52C170.752 51.3152 170.452 51.2512 169 51z"/>
<path style="fill:#ecf1f1; stroke:none;" d="M190 51C191.248 51.6848 191.548 51.7488 193 52C191.752 51.3152 191.452 51.2512 190 51z"/>
<path style="fill:#c1cdb5; stroke:none;" d="M193 51L194 52L193 51z"/>
<path style="fill:#f2f6f7; stroke:none;" d="M204 51C206.052 51.8743 207.747 51.9528 210 52C207.948 51.1258 206.253 51.0472 204 51z"/>
<path style="fill:#c5d0b9; stroke:none;" d="M223 51C224.769 51.7789 226.036 51.9124 228 52C226.231 51.2211 224.964 51.0876 223 51z"/>
<path style="fill:#f2f5f6; stroke:none;" d="M247 51C240.524 62.913 228.611 61.7302 217 62.0147C213.65 62.0967 210.346 62.9537 207 62.8711C199.022 62.6741 190.978 61.3259 183 61.1289C177.717 60.9984 172.337 62 167 62C151.965 62 136.967 61.3187 122 61.054C115.921 60.9465 110.19 63.1637 104 62.9846C98.8312 62.835 94.0967 60.6897 89 60C97.4096 69.9441 112.212 62.4317 123 63.0941C127.065 63.3437 130.917 64.7753 135 64.9606C162.212 66.196 189.757 65 217 65C225.575 65 234.531 66.1244 241.995 61.0972C245.828 58.5162 248.915 55.736 247 51z"/>
<path style="fill:#b1824e; stroke:none;" d="M30 52L31 53L30 52z"/>
<path style="fill:#79250e; stroke:none;" d="M31 52C32.2484 52.6848 32.5484 52.7488 34 53C32.7516 52.3152 32.4516 52.2512 31 52z"/>
<path style="fill:#b99a50; stroke:none;" d="M34 52L35 53L34 52z"/>
<path style="fill:#b18845; stroke:none;" d="M52 52L53 53L52 52z"/>
<path style="fill:#78240e; stroke:none;" d="M53 52C54.2484 52.6848 54.5484 52.7488 56 53C54.7516 52.3152 54.4516 52.2512 53 52z"/>
<path style="fill:#b98f49; stroke:none;" d="M56 52L57 53L56 52z"/>
<path style="fill:#b9c6aa; stroke:none;" d="M101 52C102.506 52.683 103.315 52.8259 105 53C103.494 52.317 102.685 52.1741 101 52z"/>
<path style="fill:#afbc82; stroke:none;" d="M183.667 52.3333C183.222 52.7778 184.278 52.7222 184.333 52.6667C184.778 52.2222 183.722 52.2778 183.667 52.3333z"/>
<path style="fill:#99834b; stroke:none;" d="M29 53L30 54L29 53z"/>
<path style="fill:#4e2111; stroke:none;" d="M30.6142 54.0463C27.9568 56.1035 30.606 60.8085 33.7215 58.9144C37.3673 56.6978 33.9149 51.4911 30.6142 54.0463z"/>
<path style="fill:#ac9d58; stroke:none;" d="M35 53L36 54L35 53z"/>
<path style="fill:#988047; stroke:none;" d="M51 53L52 54L51 53z"/>
<path style="fill:#542110; stroke:none;" d="M52.6034 54.0463C49.8158 56.1585 52.4804 60.8149 55.6968 58.9144C59.3848 56.7351 55.9481 51.512 52.6034 54.0463z"/>
<path style="fill:#aa9a56; stroke:none;" d="M57 53L58 54L57 53z"/>
<path style="fill:#f0fca7; stroke:none;" d="M15 54L16 57C19.8863 54.8387 23.6463 55.0005 28 55C24.0413 53.3389 19.2634 54 15 54z"/>
<path style="fill:#c0b979; stroke:none;" d="M28 54L29 55L28 54z"/>
<path style="fill:#bd7b3f; stroke:none;" d="M31 54L31 58L34 58L34 54L31 54z"/>
<path style="fill:#c7c17e; stroke:none;" d="M50 54L51 55L50 54z"/>
<path style="fill:#be7c3f; stroke:none;" d="M53 54L53 58L56 58L56 54L53 54z"/>
<path style="fill:#f1e97e; stroke:none;" d="M17 55C20.4324 56.4403 24.2998 56 28 56C24.5676 54.5597 20.7002 55 17 55z"/>
<path style="fill:#9c6e22; stroke:none;" d="M28 55L28 58C28.6961 56.4463 28.6961 56.5537 28 55z"/>
<path style="fill:#94582c; stroke:none;" d="M30 55L30 58C30.6961 56.4463 30.6961 56.5537 30 55z"/>
<path style="fill:#824925; stroke:none;" d="M34.3333 55.6667C34.2778 55.7222 34.2222 56.7778 34.6667 56.3333C34.7222 56.2778 34.7778 55.2222 34.3333 55.6667z"/>
<path style="fill:#b48628; stroke:none;" d="M36 55L36 58C36.6961 56.4463 36.6961 56.5537 36 55z"/>
<path style="fill:#f1e97e; stroke:none;" d="M37 55C40.9587 56.6611 45.7366 56 50 56C46.0413 54.3389 41.2634 55 37 55z"/>
<path style="fill:#9a6b22; stroke:none;" d="M50 55L50 58C50.6961 56.4463 50.6961 56.5537 50 55z"/>
<path style="fill:#91562c; stroke:none;" d="M52.3333 55.6667C52.2778 55.7222 52.2222 56.7778 52.6667 56.3333C52.7222 56.2778 52.7778 55.2222 52.3333 55.6667z"/>
<path style="fill:#8b5028; stroke:none;" d="M56.3333 55.6667C56.2778 55.7222 56.2222 56.7778 56.6667 56.3333C56.7222 56.2778 56.7778 55.2222 56.3333 55.6667z"/>
<path style="fill:#b08227; stroke:none;" d="M58 55L58 58C58.6961 56.4463 58.6961 56.5537 58 55z"/>
<path style="fill:#f0e879; stroke:none;" d="M59.6667 55.3333C59.2222 55.7778 60.2778 55.7222 60.3333 55.6667C60.7778 55.2222 59.7222 55.2778 59.6667 55.3333z"/>
<path style="fill:#ced6ae; stroke:none;" d="M90 55C93.6206 59.3467 97.6571 59.0017 103 59C111.459 58.9973 119.49 57 128 57C120.907 54.0237 113.196 57.3398 106 57.9066C100.199 58.3636 95.4639 56.4908 90 55z"/>
<path style="fill:#f2c83c; stroke:none;" d="M17 56C20.239 57.8728 24.2782 57.0099 28 57C24.5676 55.5597 20.7002 56 17 56z"/>
<path style="fill:#f2c230; stroke:none;" d="M21 60C30.3865 68.6776 45.6575 66.879 56 61C51.7835 59.2307 46.5411 60 42 60L42 58L50 58L50 56C39.5665 56 31.4571 60 21 60z"/>
<path style="fill:#fcd950; stroke:none;" d="M59 56L59 58C60.6352 57.4549 60.4549 57.6352 61 56L59 56z"/>
<path style="fill:#e6eade; stroke:none;" d="M88 56C89.4018 59.5748 91.2835 60.3959 95 61C92.8729 58.945 90.5595 57.4976 88 56z"/>
<path style="fill:#f9e9aa; stroke:none;" d="M17 57L18 58L17 57z"/>
<path style="fill:#eeb920; stroke:none;" d="M19 57C21.8897 58.2129 24.8741 57.9983 28 58C25.1103 56.7871 22.1259 57.0017 19 57z"/>
<path style="fill:#d2dabd; stroke:none;" d="M94 59C101.223 64.4722 113.766 59.4695 122 59.1042C129.192 58.7851 136.722 60 144 60C158.028 60 172.04 59.0385 186 59C178.361 55.7944 166.271 58 158 58C145.338 58 132.596 56.6858 120 57.0147C111.305 57.2416 102.859 59 94 59z"/>
<path style="fill:#f3dc8e; stroke:none;" d="M18 58L19 59L18 58z"/>
<path style="fill:#e4a703; stroke:none;" d="M19 58C22.2659 60.4742 26.0101 59.9996 30 60C26.7341 57.5258 22.99 58.0004 19 58z"/>
<path style="fill:#814c08; stroke:none;" d="M29 58L30 59L29 58z"/>
<path style="fill:#9c6b1e; stroke:none;" d="M35 58L36 59L35 58z"/>
<path style="fill:#e4a702; stroke:none;" d="M42 58L42 60L52 60C48.9602 57.697 45.7325 58.0029 42 58z"/>
<path style="fill:#986516; stroke:none;" d="M57 58L58 59L57 58z"/>
<path style="fill:#efcf59; stroke:none;" d="M58 58L59 59L58 58z"/>
<path style="fill:#f4dc93; stroke:none;" d="M19 59L20 60L19 59z"/>
<path style="fill:#a87721; stroke:none;" d="M34 59L35 60L34 59z"/>
<path style="fill:#a47219; stroke:none;" d="M56 59L57 60L56 59z"/>
<path style="fill:#eccc62; stroke:none;" d="M57 59L58 60L57 59z"/>
<path style="fill:#d3dac5; stroke:none;" d="M187 59C193.387 61.6802 204.003 60.9954 211 61C203.883 57.9855 194.612 59 187 59z"/>
<path style="fill:#d5ddc7; stroke:none;" d="M213 59C218.715 61.398 226.831 60 233 60C227.285 57.602 219.169 59 213 59z"/>
<path style="fill:#f6dc7f; stroke:none;" d="M56 60L57 61L56 60z"/>
<path style="fill:#dae1d6; stroke:none;" d="M132 60C136.469 61.8752 142.191 61 147 61L177 61C172.531 59.1248 166.809 60 162 60L132 60z"/>
<path style="fill:#f7e79f; stroke:none;" d="M22 61L23 62L22 61z"/>
<path style="fill:#fbf0b4; stroke:none;" d="M55 61L56 62L55 61z"/>
<path style="fill:#f7e394; stroke:none;" d="M53 62L54 63L53 62z"/>
<path style="fill:#f6dd82; stroke:none;" d="M51 63L52 64L51 63z"/>
<path style="fill:#f8e69e; stroke:none;" d="M27 64C28.2484 64.6848 28.5484 64.7488 30 65C28.7516 64.3152 28.4516 64.2512 27 64z"/>
<path style="fill:#f8e8a5; stroke:none;" d="M48.6667 64.3333C48.2222 64.7778 49.2778 64.7222 49.3333 64.6667C49.7778 64.2222 48.7222 64.2778 48.6667 64.3333z"/>
<path style="fill:#f8e4a0; stroke:none;" d="M30.6667 65.3333C30.2222 65.7778 31.2778 65.7222 31.3333 65.6667C31.7778 65.2222 30.7222 65.2778 30.6667 65.3333z"/>
<path style="fill:#f3d156; stroke:none;" d="M42 65C43.2484 65.6848 43.5484 65.7488 45 66C43.7516 65.3152 43.4516 65.2512 42 65z"/>
<path style="fill:#f9e7a8; stroke:none;" d="M45 65C46.2483 65.6848 46.5484 65.7488 48 66C46.7516 65.3152 46.4516 65.2512 45 65z"/>
<path style="fill:#faefc0; stroke:none;" d="M33 66C36.1633 67.3274 39.5856 66.9996 43 67C39.8367 65.6726 36.4144 66.0004 33 66z"/>
</svg>
